<?xml version="1.0" encoding="UTF-8" standalone="no"?>
<!DOCTYPE svg PUBLIC "-//W3C//DTD SVG 1.0//EN" "http://www.w3.org/TR/2001/PR-SVG-20010719/DTD/svg10.dtd">
<svg width="62cm" height="90cm" viewBox="59 8 1234 1787" xmlns="http://www.w3.org/2000/svg" xmlns:xlink="http://www.w3.org/1999/xlink">
  <g>
    <rect style="fill: #ffffff" x="260" y="60" width="100.4" height="36"/>
    <rect style="fill: none; fill-opacity:0; stroke-width: 2; stroke: #000000" x="260" y="60" width="100.4" height="36"/>
    <text font-size="12.8" style="fill: #000000;text-anchor:middle;font-family:sans-serif;font-style:normal;font-weight:normal" x="310.2" y="81.9">
      <tspan x="310.2" y="81.9">Diagram File</tspan>
    </text>
    <line style="fill: none; fill-opacity:0; stroke-width: 1; stroke: #000000" x1="270" y1="84.9" x2="350.4" y2="84.9"/>
  </g>
  <g>
    <rect style="fill: #ffffff" x="60" y="60" width="82.95" height="36"/>
    <rect style="fill: none; fill-opacity:0; stroke-width: 2; stroke: #000000" x="60" y="60" width="82.95" height="36"/>
    <text font-size="12.8" style="fill: #000000;text-anchor:middle;font-family:sans-serif;font-style:normal;font-weight:normal" x="101.475" y="81.9">
      <tspan x="101.475" y="81.9">Controller</tspan>
    </text>
    <line style="fill: none; fill-opacity:0; stroke-width: 1; stroke: #000000" x1="70" y1="84.9" x2="132.95" y2="84.9"/>
  </g>
  <g>
    <line style="fill: none; fill-opacity:0; stroke-width: 1; stroke-dasharray: 8; stroke: #000000" x1="310.2" y1="96" x2="310.2" y2="170"/>
    <line style="fill: none; fill-opacity:0; stroke-width: 1; stroke-dasharray: 8; stroke: #000000" x1="310.2" y1="210" x2="310.2" y2="332"/>
    <rect style="fill: #ffffff" x="303.2" y="170" width="14" height="40"/>
    <rect style="fill: none; fill-opacity:0; stroke-width: 2; stroke: #000000" x="303.2" y="170" width="14" height="40"/>
  </g>
  <g>
    <line style="fill: none; fill-opacity:0; stroke-width: 1; stroke-dasharray: 8; stroke: #000000" x1="101.475" y1="78" x2="101.475" y2="168"/>
    <line style="fill: none; fill-opacity:0; stroke-width: 1; stroke-dasharray: 8; stroke: #000000" x1="101.475" y1="608" x2="101.475" y2="693"/>
    <rect style="fill: #ffffff" x="94.475" y="168" width="14" height="440"/>
    <rect style="fill: none; fill-opacity:0; stroke-width: 2; stroke: #000000" x="94.475" y="168" width="14" height="440"/>
  </g>
  <g>
    <line style="fill: none; fill-opacity:0; stroke-width: 2; stroke: #000000" x1="286.201" y1="169.825" x2="108.475" y2="168"/>
    <polygon style="fill: #000000" points="286.15,174.825 302.2,169.99 286.252,164.826 "/>
    <polygon style="fill: none; fill-opacity:0; stroke-width: 2; stroke: #000000" points="286.15,174.825 302.2,169.99 286.252,164.826 "/>
    <text font-size="12.7998" style="fill: #000000;text-anchor:middle;font-family:sans-serif;font-style:normal;font-weight:normal" x="205.838" y="179">&lt;&lt;create&gt;&gt;</text>
  </g>
  <g>
    <rect style="fill: #ffffff" x="420" y="60" width="119.05" height="36"/>
    <rect style="fill: none; fill-opacity:0; stroke-width: 2; stroke: #000000" x="420" y="60" width="119.05" height="36"/>
    <text font-size="12.8" style="fill: #000000;text-anchor:middle;font-family:sans-serif;font-style:normal;font-weight:normal" x="479.525" y="81.9">
      <tspan x="479.525" y="81.9">Diagram Parser</tspan>
    </text>
    <line style="fill: none; fill-opacity:0; stroke-width: 1; stroke: #000000" x1="430" y1="84.9" x2="529.05" y2="84.9"/>
  </g>
  <g>
    <line style="fill: none; fill-opacity:0; stroke-width: 1; stroke-dasharray: 8; stroke: #000000" x1="479.526" y1="96" x2="479.526" y2="230"/>
    <line style="fill: none; fill-opacity:0; stroke-width: 1; stroke-dasharray: 8; stroke: #000000" x1="479.526" y1="290" x2="479.526" y2="705"/>
    <rect style="fill: #ffffff" x="472.526" y="230" width="14" height="60"/>
    <rect style="fill: none; fill-opacity:0; stroke-width: 2; stroke: #000000" x="472.526" y="230" width="14" height="60"/>
  </g>
  <g>
    <line style="fill: none; fill-opacity:0; stroke-width: 2; stroke: #000000" x1="455.545" y1="230.84" x2="108.475" y2="248"/>
    <polygon style="fill: #000000" points="455.792,235.833 471.525,230.049 455.298,225.846 "/>
    <polygon style="fill: none; fill-opacity:0; stroke-width: 2; stroke: #000000" points="455.792,235.833 471.525,230.049 455.298,225.846 "/>
    <text font-size="12.7998" style="fill: #000000;text-anchor:middle;font-family:sans-serif;font-style:normal;font-weight:normal" x="290.5" y="249">&lt;&lt;create&gt;&gt;</text>
  </g>
  <g>
    <rect style="fill: #ffffff" x="450" y="8.1" width="165.65" height="46.9"/>
    <text font-size="12.8" style="fill: #000000;text-anchor:start;font-family:sans-serif;font-style:normal;font-weight:normal" x="450" y="20">
      <tspan x="450" y="20">This should probably</tspan>
      <tspan x="450" y="36">be a factory creating</tspan>
      <tspan x="450" y="52">objects based on the xml.</tspan>
    </text>
  </g>
  <g>
    <rect style="fill: #ffffff" x="1040" y="60" width="84.55" height="36"/>
    <rect style="fill: none; fill-opacity:0; stroke-width: 2; stroke: #000000" x="1040" y="60" width="84.55" height="36"/>
    <text font-size="12.8" style="fill: #000000;text-anchor:middle;font-family:sans-serif;font-style:normal;font-weight:normal" x="1082.28" y="81.9">
      <tspan x="1082.28" y="81.9">Reference</tspan>
    </text>
    <line style="fill: none; fill-opacity:0; stroke-width: 1; stroke: #000000" x1="1050" y1="84.9" x2="1114.55" y2="84.9"/>
  </g>
  <g>
    <rect style="fill: #ffffff" x="870" y="60" width="53.15" height="36"/>
    <rect style="fill: none; fill-opacity:0; stroke-width: 2; stroke: #000000" x="870" y="60" width="53.15" height="36"/>
    <text font-size="12.8" style="fill: #000000;text-anchor:middle;font-family:sans-serif;font-style:normal;font-weight:normal" x="896.575" y="81.9">
      <tspan x="896.575" y="81.9">Table</tspan>
    </text>
    <line style="fill: none; fill-opacity:0; stroke-width: 1; stroke: #000000" x1="880" y1="84.9" x2="913.15" y2="84.9"/>
  </g>
  <g>
    <line style="fill: none; fill-opacity:0; stroke-width: 1; stroke-dasharray: 8; stroke: #000000" x1="1082.28" y1="96" x2="1082.28" y2="545"/>
    <line style="fill: none; fill-opacity:0; stroke-width: 1; stroke-dasharray: 8; stroke: #000000" x1="1082.28" y1="585" x2="1082.28" y2="700"/>
    <rect style="fill: #ffffff" x="1075.28" y="545" width="14" height="40"/>
    <rect style="fill: none; fill-opacity:0; stroke-width: 2; stroke: #000000" x="1075.28" y="545" width="14" height="40"/>
  </g>
  <g>
    <line style="fill: none; fill-opacity:0; stroke-width: 1; stroke-dasharray: 8; stroke: #000000" x1="896.574" y1="96" x2="896.574" y2="390"/>
    <line style="fill: none; fill-opacity:0; stroke-width: 1; stroke-dasharray: 8; stroke: #000000" x1="896.574" y1="430" x2="896.574" y2="705"/>
    <rect style="fill: #ffffff" x="889.574" y="390" width="14" height="40"/>
    <rect style="fill: none; fill-opacity:0; stroke-width: 2; stroke: #000000" x="889.574" y="390" width="14" height="40"/>
  </g>
  <g>
    <line style="fill: none; fill-opacity:0; stroke-width: 2; stroke: #000000" x1="872.574" y1="389.956" x2="108.475" y2="388"/>
    <polygon style="fill: #000000" points="872.561,394.956 888.574,389.997 872.587,384.956 "/>
    <polygon style="fill: none; fill-opacity:0; stroke-width: 2; stroke: #000000" points="872.561,394.956 888.574,389.997 872.587,384.956 "/>
    <text font-size="12.7998" style="fill: #000000;text-anchor:middle;font-family:sans-serif;font-style:normal;font-weight:normal" x="499.024" y="399">&lt;&lt;create&gt;&gt;</text>
  </g>
  <g>
    <line style="fill: none; fill-opacity:0; stroke-width: 2; stroke: #000000" x1="1058.28" y1="545.053" x2="108.475" y2="548"/>
    <polygon style="fill: #000000" points="1058.29,550.053 1074.28,545.003 1058.26,540.053 "/>
    <polygon style="fill: none; fill-opacity:0; stroke-width: 2; stroke: #000000" points="1058.29,550.053 1074.28,545.003 1058.26,540.053 "/>
    <text font-size="12.7998" style="fill: #000000;text-anchor:middle;font-family:sans-serif;font-style:normal;font-weight:normal" x="591.876" y="556.5">&lt;&lt;create&gt;&gt;</text>
  </g>
  <rect style="fill: none; fill-opacity:0; stroke-width: 1.9812; stroke: #000000" x="115" y="380" width="1015" height="230"/>
  <g>
    <rect style="fill: #ffffff" x="120" y="363.1" width="30.8" height="14.9"/>
    <text font-size="12.8" style="fill: #000000;text-anchor:start;font-family:sans-serif;font-style:normal;font-weight:normal" x="120" y="375">
      <tspan x="120" y="375">Loop</tspan>
    </text>
  </g>
  <g>
    <rect style="fill: #ffffff" x="670" y="60" width="120.75" height="36"/>
    <rect style="fill: none; fill-opacity:0; stroke-width: 2; stroke: #000000" x="670" y="60" width="120.75" height="36"/>
    <text font-size="12.8" style="fill: #000000;text-anchor:middle;font-family:sans-serif;font-style:normal;font-weight:normal" x="730.375" y="81.9">
      <tspan x="730.375" y="81.9">Diagram Object</tspan>
    </text>
    <line style="fill: none; fill-opacity:0; stroke-width: 1; stroke: #000000" x1="680" y1="84.9" x2="780.75" y2="84.9"/>
  </g>
  <g>
    <line style="fill: none; fill-opacity:0; stroke-width: 1; stroke-dasharray: 8; stroke: #000000" x1="730.374" y1="96" x2="730.374" y2="330"/>
    <line style="fill: none; fill-opacity:0; stroke-width: 1; stroke-dasharray: 8; stroke: #000000" x1="730.374" y1="370" x2="730.374" y2="700"/>
    <rect style="fill: #ffffff" x="723.374" y="330" width="14" height="40"/>
    <rect style="fill: none; fill-opacity:0; stroke-width: 2; stroke: #000000" x="723.374" y="330" width="14" height="40"/>
  </g>
  <g>
    <line style="fill: none; fill-opacity:0; stroke-width: 2; stroke: #000000" x1="706.374" y1="329.945" x2="108.475" y2="328"/>
    <polygon style="fill: #000000" points="706.358,334.945 722.374,329.997 706.39,324.945 "/>
    <polygon style="fill: none; fill-opacity:0; stroke-width: 2; stroke: #000000" points="706.358,334.945 722.374,329.997 706.39,324.945 "/>
    <text font-size="12.7998" style="fill: #000000;text-anchor:middle;font-family:sans-serif;font-style:normal;font-weight:normal" x="415.924" y="339">&lt;&lt;create&gt;&gt;</text>
  </g>
  <g>
    <rect style="fill: #ffffff" x="955" y="60" width="69" height="36"/>
    <rect style="fill: none; fill-opacity:0; stroke-width: 2; stroke: #000000" x="955" y="60" width="69" height="36"/>
    <text font-size="12.8" style="fill: #000000;text-anchor:middle;font-family:sans-serif;font-style:normal;font-weight:normal" x="989.5" y="81.9">
      <tspan x="989.5" y="81.9">Column</tspan>
    </text>
    <line style="fill: none; fill-opacity:0; stroke-width: 1; stroke: #000000" x1="965" y1="84.9" x2="1014" y2="84.9"/>
  </g>
  <g>
    <line style="fill: none; fill-opacity:0; stroke-width: 1; stroke-dasharray: 8; stroke: #000000" x1="989.5" y1="96" x2="989.5" y2="470"/>
    <line style="fill: none; fill-opacity:0; stroke-width: 1; stroke-dasharray: 8; stroke: #000000" x1="989.5" y1="510" x2="989.5" y2="705"/>
    <rect style="fill: #ffffff" x="982.5" y="470" width="14" height="40"/>
    <rect style="fill: none; fill-opacity:0; stroke-width: 2; stroke: #000000" x="982.5" y="470" width="14" height="40"/>
  </g>
  <g>
    <line style="fill: none; fill-opacity:0; stroke-width: 2; stroke: #000000" x1="965.504" y1="470.35" x2="108.475" y2="488"/>
    <polygon style="fill: #000000" points="965.607,475.349 981.5,470.021 965.401,465.351 "/>
    <polygon style="fill: none; fill-opacity:0; stroke-width: 2; stroke: #000000" points="965.607,475.349 981.5,470.021 965.401,465.351 "/>
    <text font-size="12.7998" style="fill: #000000;text-anchor:middle;font-family:sans-serif;font-style:normal;font-weight:normal" x="545.488" y="489">&lt;&lt;create&gt;&gt;</text>
  </g>
  <g>
    <rect style="fill: #ffffff" x="370" y="815" width="169.35" height="36"/>
    <rect style="fill: none; fill-opacity:0; stroke-width: 1.9812; stroke: #000000" x="370" y="815" width="169.35" height="36"/>
    <text font-size="12.8" style="fill: #000000;text-anchor:middle;font-family:sans-serif;font-style:normal;font-weight:normal" x="454.675" y="836.9">
      <tspan x="454.675" y="836.9">Diagram Object To XML</tspan>
    </text>
    <line style="fill: none; fill-opacity:0; stroke-width: 0.9906; stroke: #000000" x1="380" y1="839.9" x2="529.35" y2="839.9"/>
  </g>
  <g>
    <rect style="fill: #ffffff" x="60" y="800" width="82.95" height="36"/>
    <rect style="fill: none; fill-opacity:0; stroke-width: 2; stroke: #000000" x="60" y="800" width="82.95" height="36"/>
    <text font-size="12.8" style="fill: #000000;text-anchor:middle;font-family:sans-serif;font-style:normal;font-weight:normal" x="101.475" y="821.9">
      <tspan x="101.475" y="821.9">Controller</tspan>
    </text>
    <line style="fill: none; fill-opacity:0; stroke-width: 1; stroke: #000000" x1="70" y1="824.9" x2="132.95" y2="824.9"/>
  </g>
  <g>
    <line style="fill: none; fill-opacity:0; stroke-width: 1; stroke-dasharray: 8; stroke: #000000" x1="454.675" y1="833" x2="454.675" y2="907"/>
    <line style="fill: none; fill-opacity:0; stroke-width: 1; stroke-dasharray: 8; stroke: #000000" x1="454.675" y1="1227" x2="454.675" y2="1247"/>
    <rect style="fill: #ffffff" x="447.675" y="907" width="14" height="320"/>
    <rect style="fill: none; fill-opacity:0; stroke-width: 2; stroke: #000000" x="447.675" y="907" width="14" height="320"/>
  </g>
  <g>
    <line style="fill: none; fill-opacity:0; stroke-width: 1; stroke-dasharray: 8; stroke: #000000" x1="101.475" y1="818" x2="101.475" y2="908"/>
    <line style="fill: none; fill-opacity:0; stroke-width: 1; stroke-dasharray: 8; stroke: #000000" x1="101.475" y1="1388" x2="101.475" y2="1433"/>
    <rect style="fill: #ffffff" x="94.475" y="908" width="14" height="480"/>
    <rect style="fill: none; fill-opacity:0; stroke-width: 2; stroke: #000000" x="94.475" y="908" width="14" height="480"/>
  </g>
  <g>
    <line style="fill: none; fill-opacity:0; stroke-width: 2; stroke: #000000" x1="430.675" y1="927.05" x2="108.475" y2="928"/>
    <polygon style="fill: #000000" points="430.69,932.05 446.675,927.003 430.66,922.05 "/>
    <polygon style="fill: none; fill-opacity:0; stroke-width: 2; stroke: #000000" points="430.69,932.05 446.675,927.003 430.66,922.05 "/>
    <text font-size="12.7998" style="fill: #000000;text-anchor:middle;font-family:sans-serif;font-style:normal;font-weight:normal" x="278.076" y="937.5">&lt;&lt;create&gt;&gt;</text>
  </g>
  <g>
    <line style="fill: none; fill-opacity:0; stroke-width: 2; stroke: #000000" x1="430.675" y1="947.05" x2="108.475" y2="948"/>
    <polygon style="fill: #000000" points="430.69,952.05 446.675,947.003 430.66,942.05 "/>
    <polygon style="fill: none; fill-opacity:0; stroke-width: 2; stroke: #000000" points="430.69,952.05 446.675,947.003 430.66,942.05 "/>
    <text font-size="12.7998" style="fill: #000000;text-anchor:middle;font-family:sans-serif;font-style:normal;font-weight:normal" x="278.074" y="957.5">convert(diagram_object,diagram_xml)</text>
  </g>
  <g>
    <rect style="fill: #ffffff" x="1195" y="815" width="96.35" height="36"/>
    <rect style="fill: none; fill-opacity:0; stroke-width: 1.9812; stroke: #000000" x="1195" y="815" width="96.35" height="36"/>
    <text font-size="12.8" style="fill: #000000;text-anchor:middle;font-family:sans-serif;font-style:normal;font-weight:normal" x="1243.17" y="836.9">
      <tspan x="1243.17" y="836.9">DiagramFile</tspan>
    </text>
    <line style="fill: none; fill-opacity:0; stroke-width: 0.9906; stroke: #000000" x1="1205" y1="839.9" x2="1281.35" y2="839.9"/>
  </g>
  <g>
    <line style="fill: none; fill-opacity:0; stroke-width: 1; stroke-dasharray: 8; stroke: #000000" x1="1243.17" y1="851" x2="1243.17" y2="1330"/>
    <line style="fill: none; fill-opacity:0; stroke-width: 1; stroke-dasharray: 8; stroke: #000000" x1="1243.17" y1="1410" x2="1243.17" y2="1440"/>
    <rect style="fill: #ffffff" x="1236.17" y="1330" width="14" height="80"/>
    <rect style="fill: none; fill-opacity:0; stroke-width: 2; stroke: #000000" x="1236.17" y="1330" width="14" height="80"/>
  </g>
  <g>
    <line style="fill: none; fill-opacity:0; stroke-width: 2; stroke: #000000" x1="1219.18" y1="1329.97" x2="108.475" y2="1328"/>
    <polygon style="fill: #000000" points="1219.17,1334.97 1235.18,1330 1219.18,1324.97 "/>
    <polygon style="fill: none; fill-opacity:0; stroke-width: 2; stroke: #000000" points="1219.17,1334.97 1235.18,1330 1219.18,1324.97 "/>
    <text font-size="12.7998" style="fill: #000000;text-anchor:middle;font-family:sans-serif;font-style:normal;font-weight:normal" x="672.327" y="1339">&lt;&lt;create&gt;&gt;</text>
  </g>
  <g>
    <line style="fill: none; fill-opacity:0; stroke-width: 2; stroke: #000000" x1="1219.18" y1="1349.97" x2="108.475" y2="1348"/>
    <polygon style="fill: #000000" points="1219.17,1354.97 1235.18,1350 1219.18,1344.97 "/>
    <polygon style="fill: none; fill-opacity:0; stroke-width: 2; stroke: #000000" points="1219.17,1354.97 1235.18,1350 1219.18,1344.97 "/>
    <text font-size="12.7998" style="fill: #000000;text-anchor:middle;font-family:sans-serif;font-style:normal;font-weight:normal" x="672.324" y="1359">updated_diagram_xml(diagram_xml)</text>
  </g>
  <g>
    <line style="fill: none; fill-opacity:0; stroke-width: 2; stroke: #000000" x1="1219.18" y1="1369.97" x2="108.475" y2="1368"/>
    <polygon style="fill: #000000" points="1219.17,1374.97 1235.18,1370 1219.18,1364.97 "/>
    <polygon style="fill: none; fill-opacity:0; stroke-width: 2; stroke: #000000" points="1219.17,1374.97 1235.18,1370 1219.18,1364.97 "/>
    <text font-size="12.7998" style="fill: #000000;text-anchor:middle;font-family:sans-serif;font-style:normal;font-weight:normal" x="672.325" y="1379">save</text>
  </g>
  <g>
    <line style="fill: none; fill-opacity:0; stroke-width: 2; stroke: #000000" x1="431" y1="1208.95" x2="108.475" y2="1208"/>
    <polygon style="fill: #000000" points="430.985,1213.95 447,1209 431.015,1203.95 "/>
    <polygon style="fill: none; fill-opacity:0; stroke-width: 2; stroke: #000000" points="430.985,1213.95 447,1209 431.015,1203.95 "/>
    <text font-size="12.7998" style="fill: #000000;text-anchor:middle;font-family:sans-serif;font-style:normal;font-weight:normal" x="278.237" y="1218.5">diagram_xml</text>
  </g>
  <g>
    <line style="fill: none; fill-opacity:0; stroke-width: 2; stroke-dasharray: 8; stroke: #000000" x1="125.475" y1="1228.05" x2="448" y2="1229"/>
    <polygon style="fill: #000000" points="125.49,1223.05 109.475,1228 125.46,1233.05 "/>
    <polygon style="fill: none; fill-opacity:0; stroke-width: 2; stroke: #000000" points="125.49,1223.05 109.475,1228 125.46,1233.05 "/>
    <text font-size="12.7998" style="fill: #000000;text-anchor:middle;font-family:sans-serif;font-style:normal;font-weight:normal" x="278.237" y="1238.5">diagram_xml</text>
  </g>
  <g>
    <rect style="fill: #ffffff" x="740" y="815" width="146.9" height="36"/>
    <rect style="fill: none; fill-opacity:0; stroke-width: 1.9812; stroke: #000000" x="740" y="815" width="146.9" height="36"/>
    <text font-size="12.8" style="fill: #000000;text-anchor:middle;font-family:sans-serif;font-style:normal;font-weight:normal" x="813.45" y="836.9">
      <tspan x="813.45" y="836.9">Table Object to XML</tspan>
    </text>
    <line style="fill: none; fill-opacity:0; stroke-width: 0.9906; stroke: #000000" x1="750" y1="839.9" x2="876.9" y2="839.9"/>
  </g>
  <g>
    <rect style="fill: #ffffff" x="550" y="815" width="178.95" height="36"/>
    <rect style="fill: none; fill-opacity:0; stroke-width: 1.9812; stroke: #000000" x="550" y="815" width="178.95" height="36"/>
    <text font-size="12.8" style="fill: #000000;text-anchor:middle;font-family:sans-serif;font-style:normal;font-weight:normal" x="639.475" y="836.9">
      <tspan x="639.475" y="836.9">Reference Object To XML</tspan>
    </text>
    <line style="fill: none; fill-opacity:0; stroke-width: 0.9906; stroke: #000000" x1="560" y1="839.9" x2="718.95" y2="839.9"/>
  </g>
  <g>
    <rect style="fill: #ffffff" x="900" y="815" width="162.75" height="36"/>
    <rect style="fill: none; fill-opacity:0; stroke-width: 1.9812; stroke: #000000" x="900" y="815" width="162.75" height="36"/>
    <text font-size="12.8" style="fill: #000000;text-anchor:middle;font-family:sans-serif;font-style:normal;font-weight:normal" x="981.375" y="836.9">
      <tspan x="981.375" y="836.9">Column Object to XML</tspan>
    </text>
    <line style="fill: none; fill-opacity:0; stroke-width: 0.9906; stroke: #000000" x1="910" y1="839.9" x2="1052.75" y2="839.9"/>
  </g>
  <g>
    <line style="fill: none; fill-opacity:0; stroke-width: 1; stroke-dasharray: 8; stroke: #000000" x1="639.475" y1="851" x2="639.475" y2="930"/>
    <line style="fill: none; fill-opacity:0; stroke-width: 1; stroke-dasharray: 8; stroke: #000000" x1="639.475" y1="1010" x2="639.475" y2="1160"/>
    <rect style="fill: #ffffff" x="632.475" y="930" width="14" height="80"/>
    <rect style="fill: none; fill-opacity:0; stroke-width: 2; stroke: #000000" x="632.475" y="930" width="14" height="80"/>
  </g>
  <g>
    <line style="fill: none; fill-opacity:0; stroke-width: 2; stroke: #000000" x1="615.475" y1="949.9" x2="462" y2="949"/>
    <polygon style="fill: #000000" points="615.446,954.9 631.475,949.994 615.505,944.9 "/>
    <polygon style="fill: none; fill-opacity:0; stroke-width: 2; stroke: #000000" points="615.446,954.9 631.475,949.994 615.505,944.9 "/>
    <text font-size="12.7998" style="fill: #000000;text-anchor:middle;font-family:sans-serif;font-style:normal;font-weight:normal" x="547.237" y="959.5">new(reference_object)</text>
  </g>
  <g>
    <line style="fill: none; fill-opacity:0; stroke-width: 2; stroke: #000000" x1="615.475" y1="969.9" x2="462" y2="969"/>
    <polygon style="fill: #000000" points="615.446,974.9 631.475,969.994 615.505,964.9 "/>
    <polygon style="fill: none; fill-opacity:0; stroke-width: 2; stroke: #000000" points="615.446,974.9 631.475,969.994 615.505,964.9 "/>
    <text font-size="12.7998" style="fill: #000000;text-anchor:middle;font-family:sans-serif;font-style:normal;font-weight:normal" x="547.237" y="979.5">reference_xml</text>
  </g>
  <g>
    <line style="fill: none; fill-opacity:0; stroke-width: 2; stroke-dasharray: 8; stroke: #000000" x1="479" y1="989.1" x2="632.475" y2="990"/>
    <polygon style="fill: #000000" points="479.029,984.1 463,989.006 478.97,994.1 "/>
    <polygon style="fill: none; fill-opacity:0; stroke-width: 2; stroke: #000000" points="479.029,984.1 463,989.006 478.97,994.1 "/>
    <text font-size="12.7998" style="fill: #000000;text-anchor:middle;font-family:sans-serif;font-style:normal;font-weight:normal" x="547.237" y="999.5">reference_xml</text>
  </g>
  <g>
    <line style="fill: none; fill-opacity:0; stroke-width: 1; stroke-dasharray: 8; stroke: #000000" x1="813.45" y1="851" x2="813.45" y2="1010"/>
    <line style="fill: none; fill-opacity:0; stroke-width: 1; stroke-dasharray: 8; stroke: #000000" x1="813.45" y1="1090" x2="813.45" y2="1300"/>
    <rect style="fill: #ffffff" x="806.45" y="1010" width="14" height="80"/>
    <rect style="fill: none; fill-opacity:0; stroke-width: 2; stroke: #000000" x="806.45" y="1010" width="14" height="80"/>
  </g>
  <g>
    <line style="fill: none; fill-opacity:0; stroke-width: 2; stroke: #000000" x1="789.45" y1="1029.95" x2="462" y2="1029"/>
    <polygon style="fill: #000000" points="789.436,1034.95 805.45,1030 789.465,1024.95 "/>
    <polygon style="fill: none; fill-opacity:0; stroke-width: 2; stroke: #000000" points="789.436,1034.95 805.45,1030 789.465,1024.95 "/>
    <text font-size="12.7998" style="fill: #000000;text-anchor:middle;font-family:sans-serif;font-style:normal;font-weight:normal" x="634.225" y="1039.5">new(reference_object)</text>
  </g>
  <g>
    <line style="fill: none; fill-opacity:0; stroke-width: 2; stroke: #000000" x1="789.45" y1="1049.95" x2="462" y2="1049"/>
    <polygon style="fill: #000000" points="789.436,1054.95 805.45,1050 789.465,1044.95 "/>
    <polygon style="fill: none; fill-opacity:0; stroke-width: 2; stroke: #000000" points="789.436,1054.95 805.45,1050 789.465,1044.95 "/>
    <text font-size="12.7998" style="fill: #000000;text-anchor:middle;font-family:sans-serif;font-style:normal;font-weight:normal" x="634.225" y="1059.5">table_xml</text>
  </g>
  <g>
    <line style="fill: none; fill-opacity:0; stroke-width: 2; stroke-dasharray: 8; stroke: #000000" x1="479" y1="1069.05" x2="806.45" y2="1070"/>
    <polygon style="fill: #000000" points="479.014,1064.05 463,1069 478.985,1074.05 "/>
    <polygon style="fill: none; fill-opacity:0; stroke-width: 2; stroke: #000000" points="479.014,1064.05 463,1069 478.985,1074.05 "/>
    <text font-size="12.7998" style="fill: #000000;text-anchor:middle;font-family:sans-serif;font-style:normal;font-weight:normal" x="634.225" y="1079.5">table_xml</text>
  </g>
  <g>
    <line style="fill: none; fill-opacity:0; stroke-width: 1; stroke-dasharray: 8; stroke: #000000" x1="981.375" y1="851" x2="981.375" y2="1090"/>
    <line style="fill: none; fill-opacity:0; stroke-width: 1; stroke-dasharray: 8; stroke: #000000" x1="981.375" y1="1170" x2="981.375" y2="1304"/>
    <rect style="fill: #ffffff" x="974.375" y="1090" width="14" height="80"/>
    <rect style="fill: none; fill-opacity:0; stroke-width: 2; stroke: #000000" x="974.375" y="1090" width="14" height="80"/>
  </g>
  <g>
    <line style="fill: none; fill-opacity:0; stroke-width: 2; stroke: #000000" x1="957.375" y1="1109.97" x2="462" y2="1109"/>
    <polygon style="fill: #000000" points="957.365,1114.97 973.375,1110 957.385,1104.97 "/>
    <polygon style="fill: none; fill-opacity:0; stroke-width: 2; stroke: #000000" points="957.365,1114.97 973.375,1110 957.385,1104.97 "/>
    <text font-size="12.7998" style="fill: #000000;text-anchor:middle;font-family:sans-serif;font-style:normal;font-weight:normal" x="718.188" y="1119.5">new(reference_object)</text>
  </g>
  <g>
    <line style="fill: none; fill-opacity:0; stroke-width: 2; stroke: #000000" x1="957.375" y1="1129.97" x2="462" y2="1129"/>
    <polygon style="fill: #000000" points="957.365,1134.97 973.375,1130 957.385,1124.97 "/>
    <polygon style="fill: none; fill-opacity:0; stroke-width: 2; stroke: #000000" points="957.365,1134.97 973.375,1130 957.385,1124.97 "/>
    <text font-size="12.7998" style="fill: #000000;text-anchor:middle;font-family:sans-serif;font-style:normal;font-weight:normal" x="718.188" y="1139.5">column_xml</text>
  </g>
  <g>
    <line style="fill: none; fill-opacity:0; stroke-width: 2; stroke-dasharray: 8; stroke: #000000" x1="479" y1="1149.03" x2="974.375" y2="1150"/>
    <polygon style="fill: #000000" points="479.01,1144.03 463,1149 478.99,1154.03 "/>
    <polygon style="fill: none; fill-opacity:0; stroke-width: 2; stroke: #000000" points="479.01,1144.03 463,1149 478.99,1154.03 "/>
    <text font-size="12.7998" style="fill: #000000;text-anchor:middle;font-family:sans-serif;font-style:normal;font-weight:normal" x="718.188" y="1159.5">column_xml</text>
  </g>
  <g>
    <rect style="fill: #ffffff" x="440" y="1515" width="182.55" height="28"/>
    <rect style="fill: none; fill-opacity:0; stroke-width: 2; stroke: #000000" x="440" y="1515" width="182.55" height="28"/>
    <text font-size="16" style="fill: #000000;text-anchor:middle;font-family:sans-serif;font-style:normal;font-weight:700" x="531.275" y="1534">DiagramFragments</text>
    <rect style="fill: #ffffff" x="440" y="1543" width="182.55" height="8"/>
    <rect style="fill: none; fill-opacity:0; stroke-width: 2; stroke: #000000" x="440" y="1543" width="182.55" height="8"/>
    <rect style="fill: #ffffff" x="440" y="1551" width="182.55" height="8"/>
    <rect style="fill: none; fill-opacity:0; stroke-width: 2; stroke: #000000" x="440" y="1551" width="182.55" height="8"/>
  </g>
  <g>
    <rect style="fill: #ffffff" x="90" y="1520" width="203.2" height="28"/>
    <rect style="fill: none; fill-opacity:0; stroke-width: 2; stroke: #000000" x="90" y="1520" width="203.2" height="28"/>
    <text font-size="16" style="fill: #000000;text-anchor:middle;font-family:sans-serif;font-style:normal;font-weight:700" x="191.6" y="1539">DiagramObjectToXML</text>
    <rect style="fill: #ffffff" x="90" y="1548" width="203.2" height="8"/>
    <rect style="fill: none; fill-opacity:0; stroke-width: 2; stroke: #000000" x="90" y="1548" width="203.2" height="8"/>
    <rect style="fill: #ffffff" x="90" y="1556" width="203.2" height="8"/>
    <rect style="fill: none; fill-opacity:0; stroke-width: 2; stroke: #000000" x="90" y="1556" width="203.2" height="8"/>
  </g>
  <g>
    <rect style="fill: #ffffff" x="440" y="1575" width="336.95" height="28"/>
    <rect style="fill: none; fill-opacity:0; stroke-width: 2; stroke: #000000" x="440" y="1575" width="336.95" height="28"/>
    <text font-size="16" style="fill: #000000;text-anchor:middle;font-family:sans-serif;font-style:normal;font-weight:700" x="608.475" y="1594">DiagramFragmentsToXMLFragments</text>
    <rect style="fill: #ffffff" x="440" y="1603" width="336.95" height="8"/>
    <rect style="fill: none; fill-opacity:0; stroke-width: 2; stroke: #000000" x="440" y="1603" width="336.95" height="8"/>
    <rect style="fill: #ffffff" x="440" y="1611" width="336.95" height="8"/>
    <rect style="fill: none; fill-opacity:0; stroke-width: 2; stroke: #000000" x="440" y="1611" width="336.95" height="8"/>
  </g>
  <g>
    <rect style="fill: #ffffff" x="440" y="1635" width="218.25" height="28"/>
    <rect style="fill: none; fill-opacity:0; stroke-width: 2; stroke: #000000" x="440" y="1635" width="218.25" height="28"/>
    <text font-size="16" style="fill: #000000;text-anchor:middle;font-family:sans-serif;font-style:normal;font-weight:700" x="549.125" y="1654">ReferenceObjectToXML</text>
    <rect style="fill: #ffffff" x="440" y="1663" width="218.25" height="8"/>
    <rect style="fill: none; fill-opacity:0; stroke-width: 2; stroke: #000000" x="440" y="1663" width="218.25" height="8"/>
    <rect style="fill: #ffffff" x="440" y="1671" width="218.25" height="8"/>
    <rect style="fill: none; fill-opacity:0; stroke-width: 2; stroke: #000000" x="440" y="1671" width="218.25" height="8"/>
  </g>
  <g>
    <rect style="fill: #ffffff" x="440" y="1695" width="174.25" height="28"/>
    <rect style="fill: none; fill-opacity:0; stroke-width: 2; stroke: #000000" x="440" y="1695" width="174.25" height="28"/>
    <text font-size="16" style="fill: #000000;text-anchor:middle;font-family:sans-serif;font-style:normal;font-weight:700" x="527.125" y="1714">TableObjectToXML</text>
    <rect style="fill: #ffffff" x="440" y="1723" width="174.25" height="8"/>
    <rect style="fill: none; fill-opacity:0; stroke-width: 2; stroke: #000000" x="440" y="1723" width="174.25" height="8"/>
    <rect style="fill: #ffffff" x="440" y="1731" width="174.25" height="8"/>
    <rect style="fill: none; fill-opacity:0; stroke-width: 2; stroke: #000000" x="440" y="1731" width="174.25" height="8"/>
  </g>
  <g>
    <rect style="fill: #ffffff" x="440" y="1750" width="194.5" height="28"/>
    <rect style="fill: none; fill-opacity:0; stroke-width: 2; stroke: #000000" x="440" y="1750" width="194.5" height="28"/>
    <text font-size="16" style="fill: #000000;text-anchor:middle;font-family:sans-serif;font-style:normal;font-weight:700" x="537.25" y="1769">ColumnObjectToXML</text>
    <rect style="fill: #ffffff" x="440" y="1778" width="194.5" height="8"/>
    <rect style="fill: none; fill-opacity:0; stroke-width: 2; stroke: #000000" x="440" y="1778" width="194.5" height="8"/>
    <rect style="fill: #ffffff" x="440" y="1786" width="194.5" height="8"/>
    <rect style="fill: none; fill-opacity:0; stroke-width: 2; stroke: #000000" x="440" y="1786" width="194.5" height="8"/>
  </g>
  <g>
    <polyline style="fill: none; fill-opacity:0; stroke-width: 2; stroke-dasharray: 8; stroke: #000000" points="294.206,1542 362.6,1542 362.6,1537 432.289,1537 "/>
    <polyline style="fill: none; fill-opacity:0; stroke-width: 2; stroke: #000000" points="419.642,1542 435.642,1537 419.642,1532 "/>
  </g>
  <g>
    <polyline style="fill: none; fill-opacity:0; stroke-width: 2; stroke-dasharray: 8; stroke: #000000" points="294.206,1542 362.601,1542 362.601,1597 432.29,1597 "/>
    <polyline style="fill: none; fill-opacity:0; stroke-width: 2; stroke: #000000" points="419.642,1602 435.642,1597 419.642,1592 "/>
  </g>
  <g>
    <polyline style="fill: none; fill-opacity:0; stroke-width: 2; stroke-dasharray: 8; stroke: #000000" points="294.206,1542 363.103,1542 363.103,1649 433.295,1649 "/>
    <polyline style="fill: none; fill-opacity:0; stroke-width: 2; stroke: #000000" points="420.647,1654 436.647,1649 420.647,1644 "/>
  </g>
  <g>
    <polyline style="fill: none; fill-opacity:0; stroke-width: 2; stroke-dasharray: 8; stroke: #000000" points="294.206,1542 363.103,1542 363.103,1709 433.295,1709 "/>
    <polyline style="fill: none; fill-opacity:0; stroke-width: 2; stroke: #000000" points="420.647,1714 436.647,1709 420.647,1704 "/>
  </g>
  <g>
    <polyline style="fill: none; fill-opacity:0; stroke-width: 2; stroke-dasharray: 8; stroke: #000000" points="294.206,1542 363.103,1542 363.103,1764 433.295,1764 "/>
    <polyline style="fill: none; fill-opacity:0; stroke-width: 2; stroke: #000000" points="420.647,1769 436.647,1764 420.647,1759 "/>
  </g>
</svg>
