<?xml version="1.0" encoding="UTF-8" standalone="no"?>
<!DOCTYPE svg PUBLIC "-//W3C//DTD SVG 1.0//EN" "http://www.w3.org/TR/2001/PR-SVG-20010719/DTD/svg10.dtd">
<svg width="54cm" height="90cm" viewBox="59 8 1072 1782" xmlns="http://www.w3.org/2000/svg" xmlns:xlink="http://www.w3.org/1999/xlink">
  <g>
    <rect style="fill: #ffffff" x="260" y="60" width="100.4" height="36"/>
    <rect style="fill: none; fill-opacity:0; stroke-width: 2; stroke: #000000" x="260" y="60" width="100.4" height="36"/>
    <text font-size="12.8" style="fill: #000000;text-anchor:middle;font-family:sans-serif;font-style:normal;font-weight:normal" x="310.2" y="81.9">
      <tspan x="310.2" y="81.9">Diagram File</tspan>
    </text>
    <line style="fill: none; fill-opacity:0; stroke-width: 1; stroke: #000000" x1="270" y1="84.9" x2="350.4" y2="84.9"/>
  </g>
  <g>
    <rect style="fill: #ffffff" x="60" y="60" width="82.95" height="36"/>
    <rect style="fill: none; fill-opacity:0; stroke-width: 2; stroke: #000000" x="60" y="60" width="82.95" height="36"/>
    <text font-size="12.8" style="fill: #000000;text-anchor:middle;font-family:sans-serif;font-style:normal;font-weight:normal" x="101.475" y="81.9">
      <tspan x="101.475" y="81.9">Controller</tspan>
    </text>
    <line style="fill: none; fill-opacity:0; stroke-width: 1; stroke: #000000" x1="70" y1="84.9" x2="132.95" y2="84.9"/>
  </g>
  <g>
    <line style="fill: none; fill-opacity:0; stroke-width: 1; stroke-dasharray: 8; stroke: #000000" x1="310.2" y1="96" x2="310.2" y2="170"/>
    <line style="fill: none; fill-opacity:0; stroke-width: 1; stroke-dasharray: 8; stroke: #000000" x1="310.2" y1="210" x2="310.2" y2="332"/>
    <rect style="fill: #ffffff" x="303.2" y="170" width="14" height="40"/>
    <rect style="fill: none; fill-opacity:0; stroke-width: 2; stroke: #000000" x="303.2" y="170" width="14" height="40"/>
  </g>
  <g>
    <line style="fill: none; fill-opacity:0; stroke-width: 1; stroke-dasharray: 8; stroke: #000000" x1="101.475" y1="78" x2="101.475" y2="168"/>
    <line style="fill: none; fill-opacity:0; stroke-width: 1; stroke-dasharray: 8; stroke: #000000" x1="101.475" y1="608" x2="101.475" y2="693"/>
    <rect style="fill: #ffffff" x="94.475" y="168" width="14" height="440"/>
    <rect style="fill: none; fill-opacity:0; stroke-width: 2; stroke: #000000" x="94.475" y="168" width="14" height="440"/>
  </g>
  <g>
    <line style="fill: none; fill-opacity:0; stroke-width: 2; stroke: #000000" x1="286.201" y1="169.825" x2="108.475" y2="168"/>
    <polygon style="fill: #000000" points="286.15,174.825 302.2,169.99 286.252,164.826 "/>
    <polygon style="fill: none; fill-opacity:0; stroke-width: 2; stroke: #000000" points="286.15,174.825 302.2,169.99 286.252,164.826 "/>
    <text font-size="12.7998" style="fill: #000000;text-anchor:middle;font-family:sans-serif;font-style:normal;font-weight:normal" x="205.838" y="179">&lt;&lt;create&gt;&gt;</text>
  </g>
  <g>
    <rect style="fill: #ffffff" x="420" y="60" width="119.05" height="36"/>
    <rect style="fill: none; fill-opacity:0; stroke-width: 2; stroke: #000000" x="420" y="60" width="119.05" height="36"/>
    <text font-size="12.8" style="fill: #000000;text-anchor:middle;font-family:sans-serif;font-style:normal;font-weight:normal" x="479.525" y="81.9">
      <tspan x="479.525" y="81.9">Diagram Parser</tspan>
    </text>
    <line style="fill: none; fill-opacity:0; stroke-width: 1; stroke: #000000" x1="430" y1="84.9" x2="529.05" y2="84.9"/>
  </g>
  <g>
    <line style="fill: none; fill-opacity:0; stroke-width: 1; stroke-dasharray: 8; stroke: #000000" x1="479.526" y1="96" x2="479.526" y2="230"/>
    <line style="fill: none; fill-opacity:0; stroke-width: 1; stroke-dasharray: 8; stroke: #000000" x1="479.526" y1="290" x2="479.526" y2="705"/>
    <rect style="fill: #ffffff" x="472.526" y="230" width="14" height="60"/>
    <rect style="fill: none; fill-opacity:0; stroke-width: 2; stroke: #000000" x="472.526" y="230" width="14" height="60"/>
  </g>
  <g>
    <line style="fill: none; fill-opacity:0; stroke-width: 2; stroke: #000000" x1="455.545" y1="230.84" x2="108.475" y2="248"/>
    <polygon style="fill: #000000" points="455.792,235.833 471.525,230.049 455.298,225.846 "/>
    <polygon style="fill: none; fill-opacity:0; stroke-width: 2; stroke: #000000" points="455.792,235.833 471.525,230.049 455.298,225.846 "/>
    <text font-size="12.7998" style="fill: #000000;text-anchor:middle;font-family:sans-serif;font-style:normal;font-weight:normal" x="290.5" y="249">&lt;&lt;create&gt;&gt;</text>
  </g>
  <g>
    <rect style="fill: #ffffff" x="450" y="8.1" width="165.65" height="46.9"/>
    <text font-size="12.8" style="fill: #000000;text-anchor:start;font-family:sans-serif;font-style:normal;font-weight:normal" x="450" y="20">
      <tspan x="450" y="20">This should probably</tspan>
      <tspan x="450" y="36">be a factory creating</tspan>
      <tspan x="450" y="52">objects based on the xml.</tspan>
    </text>
  </g>
  <g>
    <rect style="fill: #ffffff" x="1040" y="60" width="84.55" height="36"/>
    <rect style="fill: none; fill-opacity:0; stroke-width: 2; stroke: #000000" x="1040" y="60" width="84.55" height="36"/>
    <text font-size="12.8" style="fill: #000000;text-anchor:middle;font-family:sans-serif;font-style:normal;font-weight:normal" x="1082.28" y="81.9">
      <tspan x="1082.28" y="81.9">Reference</tspan>
    </text>
    <line style="fill: none; fill-opacity:0; stroke-width: 1; stroke: #000000" x1="1050" y1="84.9" x2="1114.55" y2="84.9"/>
  </g>
  <g>
    <rect style="fill: #ffffff" x="870" y="60" width="53.15" height="36"/>
    <rect style="fill: none; fill-opacity:0; stroke-width: 2; stroke: #000000" x="870" y="60" width="53.15" height="36"/>
    <text font-size="12.8" style="fill: #000000;text-anchor:middle;font-family:sans-serif;font-style:normal;font-weight:normal" x="896.575" y="81.9">
      <tspan x="896.575" y="81.9">Table</tspan>
    </text>
    <line style="fill: none; fill-opacity:0; stroke-width: 1; stroke: #000000" x1="880" y1="84.9" x2="913.15" y2="84.9"/>
  </g>
  <g>
    <line style="fill: none; fill-opacity:0; stroke-width: 1; stroke-dasharray: 8; stroke: #000000" x1="1082.28" y1="96" x2="1082.28" y2="545"/>
    <line style="fill: none; fill-opacity:0; stroke-width: 1; stroke-dasharray: 8; stroke: #000000" x1="1082.28" y1="585" x2="1082.28" y2="700"/>
    <rect style="fill: #ffffff" x="1075.28" y="545" width="14" height="40"/>
    <rect style="fill: none; fill-opacity:0; stroke-width: 2; stroke: #000000" x="1075.28" y="545" width="14" height="40"/>
  </g>
  <g>
    <line style="fill: none; fill-opacity:0; stroke-width: 1; stroke-dasharray: 8; stroke: #000000" x1="896.574" y1="96" x2="896.574" y2="390"/>
    <line style="fill: none; fill-opacity:0; stroke-width: 1; stroke-dasharray: 8; stroke: #000000" x1="896.574" y1="430" x2="896.574" y2="705"/>
    <rect style="fill: #ffffff" x="889.574" y="390" width="14" height="40"/>
    <rect style="fill: none; fill-opacity:0; stroke-width: 2; stroke: #000000" x="889.574" y="390" width="14" height="40"/>
  </g>
  <g>
    <line style="fill: none; fill-opacity:0; stroke-width: 2; stroke: #000000" x1="872.574" y1="389.956" x2="108.475" y2="388"/>
    <polygon style="fill: #000000" points="872.561,394.956 888.574,389.997 872.587,384.956 "/>
    <polygon style="fill: none; fill-opacity:0; stroke-width: 2; stroke: #000000" points="872.561,394.956 888.574,389.997 872.587,384.956 "/>
    <text font-size="12.7998" style="fill: #000000;text-anchor:middle;font-family:sans-serif;font-style:normal;font-weight:normal" x="499.024" y="399">&lt;&lt;create&gt;&gt;</text>
  </g>
  <g>
    <line style="fill: none; fill-opacity:0; stroke-width: 2; stroke: #000000" x1="1058.28" y1="545.053" x2="108.475" y2="548"/>
    <polygon style="fill: #000000" points="1058.29,550.053 1074.28,545.003 1058.26,540.053 "/>
    <polygon style="fill: none; fill-opacity:0; stroke-width: 2; stroke: #000000" points="1058.29,550.053 1074.28,545.003 1058.26,540.053 "/>
    <text font-size="12.7998" style="fill: #000000;text-anchor:middle;font-family:sans-serif;font-style:normal;font-weight:normal" x="591.876" y="556.5">&lt;&lt;create&gt;&gt;</text>
  </g>
  <rect style="fill: none; fill-opacity:0; stroke-width: 1.9812; stroke: #000000" x="115" y="380" width="1015" height="230"/>
  <g>
    <rect style="fill: #ffffff" x="120" y="363.1" width="30.8" height="14.9"/>
    <text font-size="12.8" style="fill: #000000;text-anchor:start;font-family:sans-serif;font-style:normal;font-weight:normal" x="120" y="375">
      <tspan x="120" y="375">Loop</tspan>
    </text>
  </g>
  <g>
    <rect style="fill: #ffffff" x="670" y="60" width="120.75" height="36"/>
    <rect style="fill: none; fill-opacity:0; stroke-width: 2; stroke: #000000" x="670" y="60" width="120.75" height="36"/>
    <text font-size="12.8" style="fill: #000000;text-anchor:middle;font-family:sans-serif;font-style:normal;font-weight:normal" x="730.375" y="81.9">
      <tspan x="730.375" y="81.9">Diagram Object</tspan>
    </text>
    <line style="fill: none; fill-opacity:0; stroke-width: 1; stroke: #000000" x1="680" y1="84.9" x2="780.75" y2="84.9"/>
  </g>
  <g>
    <line style="fill: none; fill-opacity:0; stroke-width: 1; stroke-dasharray: 8; stroke: #000000" x1="730.374" y1="96" x2="730.374" y2="330"/>
    <line style="fill: none; fill-opacity:0; stroke-width: 1; stroke-dasharray: 8; stroke: #000000" x1="730.374" y1="370" x2="730.374" y2="700"/>
    <rect style="fill: #ffffff" x="723.374" y="330" width="14" height="40"/>
    <rect style="fill: none; fill-opacity:0; stroke-width: 2; stroke: #000000" x="723.374" y="330" width="14" height="40"/>
  </g>
  <g>
    <line style="fill: none; fill-opacity:0; stroke-width: 2; stroke: #000000" x1="706.374" y1="329.945" x2="108.475" y2="328"/>
    <polygon style="fill: #000000" points="706.358,334.945 722.374,329.997 706.39,324.945 "/>
    <polygon style="fill: none; fill-opacity:0; stroke-width: 2; stroke: #000000" points="706.358,334.945 722.374,329.997 706.39,324.945 "/>
    <text font-size="12.7998" style="fill: #000000;text-anchor:middle;font-family:sans-serif;font-style:normal;font-weight:normal" x="415.924" y="339">&lt;&lt;create&gt;&gt;</text>
  </g>
  <g>
    <rect style="fill: #ffffff" x="955" y="60" width="69" height="36"/>
    <rect style="fill: none; fill-opacity:0; stroke-width: 2; stroke: #000000" x="955" y="60" width="69" height="36"/>
    <text font-size="12.8" style="fill: #000000;text-anchor:middle;font-family:sans-serif;font-style:normal;font-weight:normal" x="989.5" y="81.9">
      <tspan x="989.5" y="81.9">Column</tspan>
    </text>
    <line style="fill: none; fill-opacity:0; stroke-width: 1; stroke: #000000" x1="965" y1="84.9" x2="1014" y2="84.9"/>
  </g>
  <g>
    <line style="fill: none; fill-opacity:0; stroke-width: 1; stroke-dasharray: 8; stroke: #000000" x1="989.5" y1="96" x2="989.5" y2="470"/>
    <line style="fill: none; fill-opacity:0; stroke-width: 1; stroke-dasharray: 8; stroke: #000000" x1="989.5" y1="510" x2="989.5" y2="705"/>
    <rect style="fill: #ffffff" x="982.5" y="470" width="14" height="40"/>
    <rect style="fill: none; fill-opacity:0; stroke-width: 2; stroke: #000000" x="982.5" y="470" width="14" height="40"/>
  </g>
  <g>
    <line style="fill: none; fill-opacity:0; stroke-width: 2; stroke: #000000" x1="965.504" y1="470.35" x2="108.475" y2="488"/>
    <polygon style="fill: #000000" points="965.607,475.349 981.5,470.021 965.401,465.351 "/>
    <polygon style="fill: none; fill-opacity:0; stroke-width: 2; stroke: #000000" points="965.607,475.349 981.5,470.021 965.401,465.351 "/>
    <text font-size="12.7998" style="fill: #000000;text-anchor:middle;font-family:sans-serif;font-style:normal;font-weight:normal" x="545.488" y="489">&lt;&lt;create&gt;&gt;</text>
  </g>
  <g>
    <rect style="fill: #ffffff" x="370" y="815" width="169.35" height="36"/>
    <rect style="fill: none; fill-opacity:0; stroke-width: 1.9812; stroke: #000000" x="370" y="815" width="169.35" height="36"/>
    <text font-size="12.8" style="fill: #000000;text-anchor:middle;font-family:sans-serif;font-style:normal;font-weight:normal" x="454.675" y="836.9">
      <tspan x="454.675" y="836.9">Diagram Object To XML</tspan>
    </text>
    <line style="fill: none; fill-opacity:0; stroke-width: 0.9906; stroke: #000000" x1="380" y1="839.9" x2="529.35" y2="839.9"/>
  </g>
  <g>
    <rect style="fill: #ffffff" x="60" y="800" width="82.95" height="36"/>
    <rect style="fill: none; fill-opacity:0; stroke-width: 2; stroke: #000000" x="60" y="800" width="82.95" height="36"/>
    <text font-size="12.8" style="fill: #000000;text-anchor:middle;font-family:sans-serif;font-style:normal;font-weight:normal" x="101.475" y="821.9">
      <tspan x="101.475" y="821.9">Controller</tspan>
    </text>
    <line style="fill: none; fill-opacity:0; stroke-width: 1; stroke: #000000" x1="70" y1="824.9" x2="132.95" y2="824.9"/>
  </g>
  <g>
    <line style="fill: none; fill-opacity:0; stroke-width: 1; stroke-dasharray: 8; stroke: #000000" x1="454.676" y1="833" x2="454.676" y2="907"/>
    <line style="fill: none; fill-opacity:0; stroke-width: 1; stroke-dasharray: 8; stroke: #000000" x1="454.676" y1="1227" x2="454.676" y2="1420"/>
    <rect style="fill: #ffffff" x="447.676" y="907" width="14" height="320"/>
    <rect style="fill: none; fill-opacity:0; stroke-width: 2; stroke: #000000" x="447.676" y="907" width="14" height="320"/>
  </g>
  <g>
    <line style="fill: none; fill-opacity:0; stroke-width: 1; stroke-dasharray: 8; stroke: #000000" x1="101.475" y1="818" x2="101.475" y2="908"/>
    <line style="fill: none; fill-opacity:0; stroke-width: 1; stroke-dasharray: 8; stroke: #000000" x1="101.475" y1="1388" x2="101.475" y2="1433"/>
    <rect style="fill: #ffffff" x="94.475" y="908" width="14" height="480"/>
    <rect style="fill: none; fill-opacity:0; stroke-width: 2; stroke: #000000" x="94.475" y="908" width="14" height="480"/>
  </g>
  <g>
    <line style="fill: none; fill-opacity:0; stroke-width: 2; stroke: #000000" x1="430.676" y1="927.05" x2="108.475" y2="928"/>
    <polygon style="fill: #000000" points="430.691,932.05 446.676,927.003 430.661,922.05 "/>
    <polygon style="fill: none; fill-opacity:0; stroke-width: 2; stroke: #000000" points="430.691,932.05 446.676,927.003 430.661,922.05 "/>
    <text font-size="12.7998" style="fill: #000000;text-anchor:middle;font-family:sans-serif;font-style:normal;font-weight:normal" x="278.077" y="937.5">&lt;&lt;create&gt;&gt;</text>
  </g>
  <g>
    <line style="fill: none; fill-opacity:0; stroke-width: 2; stroke: #000000" x1="430.676" y1="947.05" x2="108.475" y2="948"/>
    <polygon style="fill: #000000" points="430.691,952.05 446.676,947.003 430.661,942.05 "/>
    <polygon style="fill: none; fill-opacity:0; stroke-width: 2; stroke: #000000" points="430.691,952.05 446.676,947.003 430.661,942.05 "/>
    <text font-size="12.7998" style="fill: #000000;text-anchor:middle;font-family:sans-serif;font-style:normal;font-weight:normal" x="278.075" y="957.5">convert(diagram_object,diagram_xml)</text>
  </g>
  <g>
    <line style="fill: none; fill-opacity:0; stroke-width: 2; stroke: #000000" x1="430.676" y1="1207.05" x2="108.475" y2="1208"/>
    <polygon style="fill: #000000" points="430.691,1212.05 446.676,1207 430.661,1202.05 "/>
    <polygon style="fill: none; fill-opacity:0; stroke-width: 2; stroke: #000000" points="430.691,1212.05 446.676,1207 430.661,1202.05 "/>
    <text font-size="12.7998" style="fill: #000000;text-anchor:middle;font-family:sans-serif;font-style:normal;font-weight:normal" x="278.076" y="1217.5">diagram_xml</text>
  </g>
  <g>
    <line style="fill: none; fill-opacity:0; stroke-width: 2; stroke-dasharray: 8; stroke: #000000" x1="125.475" y1="1227.95" x2="447.676" y2="1227"/>
    <polygon style="fill: #000000" points="125.46,1222.95 109.475,1228 125.49,1232.95 "/>
    <polygon style="fill: none; fill-opacity:0; stroke-width: 2; stroke: #000000" points="125.46,1222.95 109.475,1228 125.49,1232.95 "/>
    <text font-size="12.7998" style="fill: #000000;text-anchor:middle;font-family:sans-serif;font-style:normal;font-weight:normal" x="278.076" y="1237.5">diagram_xml</text>
  </g>
  <g>
    <rect style="fill: #ffffff" x="715" y="815" width="108.1" height="36"/>
    <rect style="fill: none; fill-opacity:0; stroke-width: 1.9812; stroke: #000000" x="715" y="815" width="108.1" height="36"/>
    <text font-size="12.8" style="fill: #000000;text-anchor:middle;font-family:sans-serif;font-style:normal;font-weight:normal" x="769.05" y="836.9">
      <tspan x="769.05" y="836.9">XMLFragment</tspan>
    </text>
    <line style="fill: none; fill-opacity:0; stroke-width: 0.9906; stroke: #000000" x1="725" y1="839.9" x2="813.1" y2="839.9"/>
  </g>
  <g>
    <rect style="fill: #ffffff" x="550" y="815" width="142.7" height="36"/>
    <rect style="fill: none; fill-opacity:0; stroke-width: 1.9812; stroke: #000000" x="550" y="815" width="142.7" height="36"/>
    <text font-size="12.8" style="fill: #000000;text-anchor:middle;font-family:sans-serif;font-style:normal;font-weight:normal" x="621.35" y="836.9">
      <tspan x="621.35" y="836.9">DiagramFragments</tspan>
    </text>
    <line style="fill: none; fill-opacity:0; stroke-width: 0.9906; stroke: #000000" x1="560" y1="839.9" x2="682.7" y2="839.9"/>
  </g>
  <g>
    <line style="fill: none; fill-opacity:0; stroke-width: 1; stroke-dasharray: 8; stroke: #000000" x1="621.35" y1="851" x2="621.35" y2="935"/>
    <line style="fill: none; fill-opacity:0; stroke-width: 1; stroke-dasharray: 8; stroke: #000000" x1="621.35" y1="995" x2="621.35" y2="1410"/>
    <rect style="fill: #ffffff" x="614.35" y="935" width="14" height="60"/>
    <rect style="fill: none; fill-opacity:0; stroke-width: 2; stroke: #000000" x="614.35" y="935" width="14" height="60"/>
  </g>
  <g>
    <line style="fill: none; fill-opacity:0; stroke-width: 2; stroke: #000000" x1="597.353" y1="949.666" x2="461.676" y2="947"/>
    <polygon style="fill: #000000" points="597.255,954.665 613.35,949.98 597.452,944.667 "/>
    <polygon style="fill: none; fill-opacity:0; stroke-width: 2; stroke: #000000" points="597.255,954.665 613.35,949.98 597.452,944.667 "/>
    <text font-size="12.7998" style="fill: #000000;text-anchor:middle;font-family:sans-serif;font-style:normal;font-weight:normal" x="538.014" y="958.5">new()</text>
  </g>
  <g>
    <line style="fill: none; fill-opacity:0; stroke-width: 1; stroke-dasharray: 8; stroke: #000000" x1="769.05" y1="851" x2="769.05" y2="1010"/>
    <line style="fill: none; fill-opacity:0; stroke-width: 1; stroke-dasharray: 8; stroke: #000000" x1="769.05" y1="1090" x2="769.05" y2="1405"/>
    <rect style="fill: #ffffff" x="762.05" y="1010" width="14" height="80"/>
    <rect style="fill: none; fill-opacity:0; stroke-width: 2; stroke: #000000" x="762.05" y="1010" width="14" height="80"/>
  </g>
  <g>
    <line style="fill: none; fill-opacity:0; stroke-width: 2; stroke: #000000" x1="745.051" y1="1029.83" x2="461.676" y2="1027"/>
    <polygon style="fill: #000000" points="745.001,1034.83 761.05,1029.99 745.101,1024.83 "/>
    <polygon style="fill: none; fill-opacity:0; stroke-width: 2; stroke: #000000" points="745.001,1034.83 761.05,1029.99 745.101,1024.83 "/>
    <text font-size="12.7998" style="fill: #000000;text-anchor:middle;font-family:sans-serif;font-style:normal;font-weight:normal" x="611.862" y="1038.5">new(diagram_fragment)</text>
  </g>
  <g>
    <rect style="fill: #ffffff" x="440" y="1525" width="182.55" height="28"/>
    <rect style="fill: none; fill-opacity:0; stroke-width: 2; stroke: #000000" x="440" y="1525" width="182.55" height="28"/>
    <text font-size="16" style="fill: #000000;text-anchor:middle;font-family:sans-serif;font-style:normal;font-weight:700" x="531.275" y="1544">DiagramFragments</text>
    <rect style="fill: #ffffff" x="440" y="1553" width="182.55" height="8"/>
    <rect style="fill: none; fill-opacity:0; stroke-width: 2; stroke: #000000" x="440" y="1553" width="182.55" height="8"/>
    <rect style="fill: #ffffff" x="440" y="1561" width="182.55" height="8"/>
    <rect style="fill: none; fill-opacity:0; stroke-width: 2; stroke: #000000" x="440" y="1561" width="182.55" height="8"/>
  </g>
  <g>
    <rect style="fill: #ffffff" x="90" y="1520" width="279.6" height="28"/>
    <rect style="fill: none; fill-opacity:0; stroke-width: 2; stroke: #000000" x="90" y="1520" width="279.6" height="28"/>
    <text font-size="16" style="fill: #000000;text-anchor:middle;font-family:sans-serif;font-style:normal;font-weight:700" x="229.8" y="1539">DiagramObjectToDiagramXML</text>
    <rect style="fill: #ffffff" x="90" y="1548" width="279.6" height="8"/>
    <rect style="fill: none; fill-opacity:0; stroke-width: 2; stroke: #000000" x="90" y="1548" width="279.6" height="8"/>
    <rect style="fill: #ffffff" x="90" y="1556" width="279.6" height="8"/>
    <rect style="fill: none; fill-opacity:0; stroke-width: 2; stroke: #000000" x="90" y="1556" width="279.6" height="8"/>
  </g>
  <g>
    <rect style="fill: #ffffff" x="440" y="1580" width="135.1" height="28"/>
    <rect style="fill: none; fill-opacity:0; stroke-width: 2; stroke: #000000" x="440" y="1580" width="135.1" height="28"/>
    <text font-size="16" style="fill: #000000;text-anchor:middle;font-family:sans-serif;font-style:normal;font-weight:700" x="507.55" y="1599">XMLFragment</text>
    <rect style="fill: #ffffff" x="440" y="1608" width="135.1" height="8"/>
    <rect style="fill: none; fill-opacity:0; stroke-width: 2; stroke: #000000" x="440" y="1608" width="135.1" height="8"/>
    <rect style="fill: #ffffff" x="440" y="1616" width="135.1" height="8"/>
    <rect style="fill: none; fill-opacity:0; stroke-width: 2; stroke: #000000" x="440" y="1616" width="135.1" height="8"/>
  </g>
  <g>
    <rect style="fill: #ffffff" x="440" y="1635" width="256.2" height="28"/>
    <rect style="fill: none; fill-opacity:0; stroke-width: 2; stroke: #000000" x="440" y="1635" width="256.2" height="28"/>
    <text font-size="16" style="fill: #000000;text-anchor:middle;font-family:sans-serif;font-style:normal;font-weight:700" x="568.1" y="1654">ReferenceObjectToDiagram</text>
    <rect style="fill: #ffffff" x="440" y="1663" width="256.2" height="8"/>
    <rect style="fill: none; fill-opacity:0; stroke-width: 2; stroke: #000000" x="440" y="1663" width="256.2" height="8"/>
    <rect style="fill: #ffffff" x="440" y="1671" width="256.2" height="8"/>
    <rect style="fill: none; fill-opacity:0; stroke-width: 2; stroke: #000000" x="440" y="1671" width="256.2" height="8"/>
  </g>
  <g>
    <rect style="fill: #ffffff" x="440" y="1690" width="212.2" height="28"/>
    <rect style="fill: none; fill-opacity:0; stroke-width: 2; stroke: #000000" x="440" y="1690" width="212.2" height="28"/>
    <text font-size="16" style="fill: #000000;text-anchor:middle;font-family:sans-serif;font-style:normal;font-weight:700" x="546.1" y="1709">TableObjectToDiagram</text>
    <rect style="fill: #ffffff" x="440" y="1718" width="212.2" height="8"/>
    <rect style="fill: none; fill-opacity:0; stroke-width: 2; stroke: #000000" x="440" y="1718" width="212.2" height="8"/>
    <rect style="fill: #ffffff" x="440" y="1726" width="212.2" height="8"/>
    <rect style="fill: none; fill-opacity:0; stroke-width: 2; stroke: #000000" x="440" y="1726" width="212.2" height="8"/>
  </g>
  <g>
    <rect style="fill: #ffffff" x="440" y="1745" width="232.45" height="28"/>
    <rect style="fill: none; fill-opacity:0; stroke-width: 2; stroke: #000000" x="440" y="1745" width="232.45" height="28"/>
    <text font-size="16" style="fill: #000000;text-anchor:middle;font-family:sans-serif;font-style:normal;font-weight:700" x="556.225" y="1764">ColumnObjectToDiagram</text>
    <rect style="fill: #ffffff" x="440" y="1773" width="232.45" height="8"/>
    <rect style="fill: none; fill-opacity:0; stroke-width: 2; stroke: #000000" x="440" y="1773" width="232.45" height="8"/>
    <rect style="fill: #ffffff" x="440" y="1781" width="232.45" height="8"/>
    <rect style="fill: none; fill-opacity:0; stroke-width: 2; stroke: #000000" x="440" y="1781" width="232.45" height="8"/>
  </g>
  <g>
    <polyline style="fill: none; fill-opacity:0; stroke-width: 2; stroke-dasharray: 8; stroke: #000000" points="370.609,1542 400.801,1542 400.801,1547 432.289,1547 "/>
    <polyline style="fill: none; fill-opacity:0; stroke-width: 2; stroke: #000000" points="419.642,1552 435.642,1547 419.642,1542 "/>
  </g>
  <g>
    <polyline style="fill: none; fill-opacity:0; stroke-width: 2; stroke-dasharray: 8; stroke: #000000" points="370.609,1542 400.8,1542 400.8,1602 432.286,1602 "/>
    <polyline style="fill: none; fill-opacity:0; stroke-width: 2; stroke: #000000" points="419.639,1607 435.639,1602 419.639,1597 "/>
  </g>
  <g>
    <polyline style="fill: none; fill-opacity:0; stroke-width: 2; stroke-dasharray: 8; stroke: #000000" points="370.609,1542 401.304,1542 401.304,1649 433.295,1649 "/>
    <polyline style="fill: none; fill-opacity:0; stroke-width: 2; stroke: #000000" points="420.647,1654 436.647,1649 420.647,1644 "/>
  </g>
  <g>
    <polyline style="fill: none; fill-opacity:0; stroke-width: 2; stroke-dasharray: 8; stroke: #000000" points="370.609,1542 401.304,1542 401.304,1704 433.295,1704 "/>
    <polyline style="fill: none; fill-opacity:0; stroke-width: 2; stroke: #000000" points="420.647,1709 436.647,1704 420.647,1699 "/>
  </g>
  <g>
    <polyline style="fill: none; fill-opacity:0; stroke-width: 2; stroke-dasharray: 8; stroke: #000000" points="370.609,1542 401.304,1542 401.304,1759 433.295,1759 "/>
    <polyline style="fill: none; fill-opacity:0; stroke-width: 2; stroke: #000000" points="420.647,1764 436.647,1759 420.647,1754 "/>
  </g>
  <g>
    <rect style="fill: #ffffff" x="845" y="815" width="194.75" height="36"/>
    <rect style="fill: none; fill-opacity:0; stroke-width: 2; stroke: #000000" x="845" y="815" width="194.75" height="36"/>
    <text font-size="12.7998" style="fill: #000000;text-anchor:middle;font-family:sans-serif;font-style:normal;font-weight:normal" x="942.375" y="836.9">
      <tspan x="942.375" y="836.9">ReferenceObjectToDiagram</tspan>
    </text>
    <line style="fill: none; fill-opacity:0; stroke-width: 1; stroke: #000000" x1="855" y1="839.9" x2="1029.75" y2="839.9"/>
  </g>
  <g>
    <line style="fill: none; fill-opacity:0; stroke-width: 1; stroke-dasharray: 8; stroke: #000000" x1="942.375" y1="851" x2="942.375" y2="1110"/>
    <line style="fill: none; fill-opacity:0; stroke-width: 1; stroke-dasharray: 8; stroke: #000000" x1="942.375" y1="1190" x2="942.375" y2="1418"/>
    <rect style="fill: #ffffff" x="935.375" y="1110" width="14" height="80"/>
    <rect style="fill: none; fill-opacity:0; stroke-width: 2; stroke: #000000" x="935.375" y="1110" width="14" height="80"/>
  </g>
  <g>
    <line style="fill: none; fill-opacity:0; stroke-width: 2; stroke: #000000" x1="918.375" y1="1109.89" x2="461.676" y2="1107"/>
    <polygon style="fill: #000000" points="918.344,1114.89 934.375,1109.99 918.407,1104.89 "/>
    <polygon style="fill: none; fill-opacity:0; stroke-width: 2; stroke: #000000" points="918.344,1114.89 934.375,1109.99 918.407,1104.89 "/>
    <text font-size="12.7998" style="fill: #000000;text-anchor:middle;font-family:sans-serif;font-style:normal;font-weight:normal" x="698.525" y="1118.5">new(xml_fragment)</text>
  </g>
</svg>
