<?xml version="1.0" encoding="UTF-8" standalone="no"?>
<!DOCTYPE svg PUBLIC "-//W3C//DTD SVG 1.0//EN" "http://www.w3.org/TR/2001/PR-SVG-20010719/DTD/svg10.dtd">
<svg width="62cm" height="72cm" viewBox="59 8 1234 1433" xmlns="http://www.w3.org/2000/svg" xmlns:xlink="http://www.w3.org/1999/xlink">
  <g>
    <rect style="fill: #ffffff" x="260" y="60" width="100.4" height="36"/>
    <rect style="fill: none; fill-opacity:0; stroke-width: 2; stroke: #000000" x="260" y="60" width="100.4" height="36"/>
    <text font-size="12.8" style="fill: #000000;text-anchor:middle;font-family:sans-serif;font-style:normal;font-weight:normal" x="310.2" y="81.9">
      <tspan x="310.2" y="81.9">Diagram File</tspan>
    </text>
    <line style="fill: none; fill-opacity:0; stroke-width: 1; stroke: #000000" x1="270" y1="84.9" x2="350.4" y2="84.9"/>
  </g>
  <g>
    <rect style="fill: #ffffff" x="60" y="60" width="82.95" height="36"/>
    <rect style="fill: none; fill-opacity:0; stroke-width: 2; stroke: #000000" x="60" y="60" width="82.95" height="36"/>
    <text font-size="12.8" style="fill: #000000;text-anchor:middle;font-family:sans-serif;font-style:normal;font-weight:normal" x="101.475" y="81.9">
      <tspan x="101.475" y="81.9">Controller</tspan>
    </text>
    <line style="fill: none; fill-opacity:0; stroke-width: 1; stroke: #000000" x1="70" y1="84.9" x2="132.95" y2="84.9"/>
  </g>
  <g>
    <line style="fill: none; fill-opacity:0; stroke-width: 1; stroke-dasharray: 8; stroke: #000000" x1="310.2" y1="96" x2="310.2" y2="170"/>
    <line style="fill: none; fill-opacity:0; stroke-width: 1; stroke-dasharray: 8; stroke: #000000" x1="310.2" y1="210" x2="310.2" y2="332"/>
    <rect style="fill: #ffffff" x="303.2" y="170" width="14" height="40"/>
    <rect style="fill: none; fill-opacity:0; stroke-width: 2; stroke: #000000" x="303.2" y="170" width="14" height="40"/>
  </g>
  <g>
    <line style="fill: none; fill-opacity:0; stroke-width: 1; stroke-dasharray: 8; stroke: #000000" x1="101.475" y1="78" x2="101.475" y2="168"/>
    <line style="fill: none; fill-opacity:0; stroke-width: 1; stroke-dasharray: 8; stroke: #000000" x1="101.475" y1="608" x2="101.475" y2="693"/>
    <rect style="fill: #ffffff" x="94.475" y="168" width="14" height="440"/>
    <rect style="fill: none; fill-opacity:0; stroke-width: 2; stroke: #000000" x="94.475" y="168" width="14" height="440"/>
  </g>
  <g>
    <line style="fill: none; fill-opacity:0; stroke-width: 2; stroke: #000000" x1="286.201" y1="169.825" x2="108.475" y2="168"/>
    <polygon style="fill: #000000" points="286.15,174.825 302.2,169.99 286.252,164.826 "/>
    <polygon style="fill: none; fill-opacity:0; stroke-width: 2; stroke: #000000" points="286.15,174.825 302.2,169.99 286.252,164.826 "/>
    <text font-size="12.7998" style="fill: #000000;text-anchor:middle;font-family:sans-serif;font-style:normal;font-weight:normal" x="205.838" y="179">&lt;&lt;create&gt;&gt;</text>
  </g>
  <g>
    <rect style="fill: #ffffff" x="420" y="60" width="119.05" height="36"/>
    <rect style="fill: none; fill-opacity:0; stroke-width: 2; stroke: #000000" x="420" y="60" width="119.05" height="36"/>
    <text font-size="12.8" style="fill: #000000;text-anchor:middle;font-family:sans-serif;font-style:normal;font-weight:normal" x="479.525" y="81.9">
      <tspan x="479.525" y="81.9">Diagram Parser</tspan>
    </text>
    <line style="fill: none; fill-opacity:0; stroke-width: 1; stroke: #000000" x1="430" y1="84.9" x2="529.05" y2="84.9"/>
  </g>
  <g>
    <line style="fill: none; fill-opacity:0; stroke-width: 1; stroke-dasharray: 8; stroke: #000000" x1="479.526" y1="96" x2="479.526" y2="230"/>
    <line style="fill: none; fill-opacity:0; stroke-width: 1; stroke-dasharray: 8; stroke: #000000" x1="479.526" y1="290" x2="479.526" y2="705"/>
    <rect style="fill: #ffffff" x="472.526" y="230" width="14" height="60"/>
    <rect style="fill: none; fill-opacity:0; stroke-width: 2; stroke: #000000" x="472.526" y="230" width="14" height="60"/>
  </g>
  <g>
    <line style="fill: none; fill-opacity:0; stroke-width: 2; stroke: #000000" x1="455.545" y1="230.84" x2="108.475" y2="248"/>
    <polygon style="fill: #000000" points="455.792,235.833 471.525,230.049 455.298,225.846 "/>
    <polygon style="fill: none; fill-opacity:0; stroke-width: 2; stroke: #000000" points="455.792,235.833 471.525,230.049 455.298,225.846 "/>
    <text font-size="12.7998" style="fill: #000000;text-anchor:middle;font-family:sans-serif;font-style:normal;font-weight:normal" x="290.5" y="249">&lt;&lt;create&gt;&gt;</text>
  </g>
  <g>
    <rect style="fill: #ffffff" x="450" y="8.1" width="165.65" height="46.9"/>
    <text font-size="12.8" style="fill: #000000;text-anchor:start;font-family:sans-serif;font-style:normal;font-weight:normal" x="450" y="20">
      <tspan x="450" y="20">This should probably</tspan>
      <tspan x="450" y="36">be a factory creating</tspan>
      <tspan x="450" y="52">objects based on the xml.</tspan>
    </text>
  </g>
  <g>
    <rect style="fill: #ffffff" x="1040" y="60" width="84.55" height="36"/>
    <rect style="fill: none; fill-opacity:0; stroke-width: 2; stroke: #000000" x="1040" y="60" width="84.55" height="36"/>
    <text font-size="12.8" style="fill: #000000;text-anchor:middle;font-family:sans-serif;font-style:normal;font-weight:normal" x="1082.28" y="81.9">
      <tspan x="1082.28" y="81.9">Reference</tspan>
    </text>
    <line style="fill: none; fill-opacity:0; stroke-width: 1; stroke: #000000" x1="1050" y1="84.9" x2="1114.55" y2="84.9"/>
  </g>
  <g>
    <rect style="fill: #ffffff" x="870" y="60" width="53.15" height="36"/>
    <rect style="fill: none; fill-opacity:0; stroke-width: 2; stroke: #000000" x="870" y="60" width="53.15" height="36"/>
    <text font-size="12.8" style="fill: #000000;text-anchor:middle;font-family:sans-serif;font-style:normal;font-weight:normal" x="896.575" y="81.9">
      <tspan x="896.575" y="81.9">Table</tspan>
    </text>
    <line style="fill: none; fill-opacity:0; stroke-width: 1; stroke: #000000" x1="880" y1="84.9" x2="913.15" y2="84.9"/>
  </g>
  <g>
    <line style="fill: none; fill-opacity:0; stroke-width: 1; stroke-dasharray: 8; stroke: #000000" x1="1082.28" y1="96" x2="1082.28" y2="545"/>
    <line style="fill: none; fill-opacity:0; stroke-width: 1; stroke-dasharray: 8; stroke: #000000" x1="1082.28" y1="585" x2="1082.28" y2="700"/>
    <rect style="fill: #ffffff" x="1075.28" y="545" width="14" height="40"/>
    <rect style="fill: none; fill-opacity:0; stroke-width: 2; stroke: #000000" x="1075.28" y="545" width="14" height="40"/>
  </g>
  <g>
    <line style="fill: none; fill-opacity:0; stroke-width: 1; stroke-dasharray: 8; stroke: #000000" x1="896.574" y1="96" x2="896.574" y2="390"/>
    <line style="fill: none; fill-opacity:0; stroke-width: 1; stroke-dasharray: 8; stroke: #000000" x1="896.574" y1="430" x2="896.574" y2="705"/>
    <rect style="fill: #ffffff" x="889.574" y="390" width="14" height="40"/>
    <rect style="fill: none; fill-opacity:0; stroke-width: 2; stroke: #000000" x="889.574" y="390" width="14" height="40"/>
  </g>
  <g>
    <line style="fill: none; fill-opacity:0; stroke-width: 2; stroke: #000000" x1="872.574" y1="389.956" x2="108.475" y2="388"/>
    <polygon style="fill: #000000" points="872.561,394.956 888.574,389.997 872.587,384.956 "/>
    <polygon style="fill: none; fill-opacity:0; stroke-width: 2; stroke: #000000" points="872.561,394.956 888.574,389.997 872.587,384.956 "/>
    <text font-size="12.7998" style="fill: #000000;text-anchor:middle;font-family:sans-serif;font-style:normal;font-weight:normal" x="499.024" y="399">&lt;&lt;create&gt;&gt;</text>
  </g>
  <g>
    <line style="fill: none; fill-opacity:0; stroke-width: 2; stroke: #000000" x1="1058.28" y1="545.053" x2="108.475" y2="548"/>
    <polygon style="fill: #000000" points="1058.29,550.053 1074.28,545.003 1058.26,540.053 "/>
    <polygon style="fill: none; fill-opacity:0; stroke-width: 2; stroke: #000000" points="1058.29,550.053 1074.28,545.003 1058.26,540.053 "/>
    <text font-size="12.7998" style="fill: #000000;text-anchor:middle;font-family:sans-serif;font-style:normal;font-weight:normal" x="591.876" y="556.5">&lt;&lt;create&gt;&gt;</text>
  </g>
  <rect style="fill: none; fill-opacity:0; stroke-width: 1.9812; stroke: #000000" x="115" y="380" width="1015" height="230"/>
  <g>
    <rect style="fill: #ffffff" x="120" y="363.1" width="30.8" height="14.9"/>
    <text font-size="12.8" style="fill: #000000;text-anchor:start;font-family:sans-serif;font-style:normal;font-weight:normal" x="120" y="375">
      <tspan x="120" y="375">Loop</tspan>
    </text>
  </g>
  <g>
    <rect style="fill: #ffffff" x="670" y="60" width="120.75" height="36"/>
    <rect style="fill: none; fill-opacity:0; stroke-width: 2; stroke: #000000" x="670" y="60" width="120.75" height="36"/>
    <text font-size="12.8" style="fill: #000000;text-anchor:middle;font-family:sans-serif;font-style:normal;font-weight:normal" x="730.375" y="81.9">
      <tspan x="730.375" y="81.9">Diagram Object</tspan>
    </text>
    <line style="fill: none; fill-opacity:0; stroke-width: 1; stroke: #000000" x1="680" y1="84.9" x2="780.75" y2="84.9"/>
  </g>
  <g>
    <line style="fill: none; fill-opacity:0; stroke-width: 1; stroke-dasharray: 8; stroke: #000000" x1="730.374" y1="96" x2="730.374" y2="330"/>
    <line style="fill: none; fill-opacity:0; stroke-width: 1; stroke-dasharray: 8; stroke: #000000" x1="730.374" y1="370" x2="730.374" y2="700"/>
    <rect style="fill: #ffffff" x="723.374" y="330" width="14" height="40"/>
    <rect style="fill: none; fill-opacity:0; stroke-width: 2; stroke: #000000" x="723.374" y="330" width="14" height="40"/>
  </g>
  <g>
    <line style="fill: none; fill-opacity:0; stroke-width: 2; stroke: #000000" x1="706.374" y1="329.945" x2="108.475" y2="328"/>
    <polygon style="fill: #000000" points="706.358,334.945 722.374,329.997 706.39,324.945 "/>
    <polygon style="fill: none; fill-opacity:0; stroke-width: 2; stroke: #000000" points="706.358,334.945 722.374,329.997 706.39,324.945 "/>
    <text font-size="12.7998" style="fill: #000000;text-anchor:middle;font-family:sans-serif;font-style:normal;font-weight:normal" x="415.924" y="339">&lt;&lt;create&gt;&gt;</text>
  </g>
  <g>
    <rect style="fill: #ffffff" x="955" y="60" width="69" height="36"/>
    <rect style="fill: none; fill-opacity:0; stroke-width: 2; stroke: #000000" x="955" y="60" width="69" height="36"/>
    <text font-size="12.8" style="fill: #000000;text-anchor:middle;font-family:sans-serif;font-style:normal;font-weight:normal" x="989.5" y="81.9">
      <tspan x="989.5" y="81.9">Column</tspan>
    </text>
    <line style="fill: none; fill-opacity:0; stroke-width: 1; stroke: #000000" x1="965" y1="84.9" x2="1014" y2="84.9"/>
  </g>
  <g>
    <line style="fill: none; fill-opacity:0; stroke-width: 1; stroke-dasharray: 8; stroke: #000000" x1="989.5" y1="96" x2="989.5" y2="470"/>
    <line style="fill: none; fill-opacity:0; stroke-width: 1; stroke-dasharray: 8; stroke: #000000" x1="989.5" y1="510" x2="989.5" y2="705"/>
    <rect style="fill: #ffffff" x="982.5" y="470" width="14" height="40"/>
    <rect style="fill: none; fill-opacity:0; stroke-width: 2; stroke: #000000" x="982.5" y="470" width="14" height="40"/>
  </g>
  <g>
    <line style="fill: none; fill-opacity:0; stroke-width: 2; stroke: #000000" x1="965.504" y1="470.35" x2="108.475" y2="488"/>
    <polygon style="fill: #000000" points="965.607,475.349 981.5,470.021 965.401,465.351 "/>
    <polygon style="fill: none; fill-opacity:0; stroke-width: 2; stroke: #000000" points="965.607,475.349 981.5,470.021 965.401,465.351 "/>
    <text font-size="12.7998" style="fill: #000000;text-anchor:middle;font-family:sans-serif;font-style:normal;font-weight:normal" x="545.488" y="489">&lt;&lt;create&gt;&gt;</text>
  </g>
  <g>
    <rect style="fill: #ffffff" x="370" y="815" width="169.35" height="36"/>
    <rect style="fill: none; fill-opacity:0; stroke-width: 1.9812; stroke: #000000" x="370" y="815" width="169.35" height="36"/>
    <text font-size="12.8" style="fill: #000000;text-anchor:middle;font-family:sans-serif;font-style:normal;font-weight:normal" x="454.675" y="836.9">
      <tspan x="454.675" y="836.9">Diagram Object To XML</tspan>
    </text>
    <line style="fill: none; fill-opacity:0; stroke-width: 0.9906; stroke: #000000" x1="380" y1="839.9" x2="529.35" y2="839.9"/>
  </g>
  <g>
    <rect style="fill: #ffffff" x="60" y="800" width="82.95" height="36"/>
    <rect style="fill: none; fill-opacity:0; stroke-width: 2; stroke: #000000" x="60" y="800" width="82.95" height="36"/>
    <text font-size="12.8" style="fill: #000000;text-anchor:middle;font-family:sans-serif;font-style:normal;font-weight:normal" x="101.475" y="821.9">
      <tspan x="101.475" y="821.9">Controller</tspan>
    </text>
    <line style="fill: none; fill-opacity:0; stroke-width: 1; stroke: #000000" x1="70" y1="824.9" x2="132.95" y2="824.9"/>
  </g>
  <g>
    <line style="fill: none; fill-opacity:0; stroke-width: 1; stroke-dasharray: 8; stroke: #000000" x1="454.675" y1="851" x2="454.675" y2="925"/>
    <line style="fill: none; fill-opacity:0; stroke-width: 1; stroke-dasharray: 8; stroke: #000000" x1="454.675" y1="1245" x2="454.675" y2="1265"/>
    <rect style="fill: #ffffff" x="447.675" y="925" width="14" height="320"/>
    <rect style="fill: none; fill-opacity:0; stroke-width: 2; stroke: #000000" x="447.675" y="925" width="14" height="320"/>
  </g>
  <g>
    <line style="fill: none; fill-opacity:0; stroke-width: 1; stroke-dasharray: 8; stroke: #000000" x1="101.475" y1="818" x2="101.475" y2="908"/>
    <line style="fill: none; fill-opacity:0; stroke-width: 1; stroke-dasharray: 8; stroke: #000000" x1="101.475" y1="1388" x2="101.475" y2="1433"/>
    <rect style="fill: #ffffff" x="94.475" y="908" width="14" height="480"/>
    <rect style="fill: none; fill-opacity:0; stroke-width: 2; stroke: #000000" x="94.475" y="908" width="14" height="480"/>
  </g>
  <g>
    <line style="fill: none; fill-opacity:0; stroke-width: 2; stroke: #000000" x1="430.676" y1="925.15" x2="108.475" y2="928"/>
    <polygon style="fill: #000000" points="430.72,930.15 446.675,925.009 430.631,920.151 "/>
    <polygon style="fill: none; fill-opacity:0; stroke-width: 2; stroke: #000000" points="430.72,930.15 446.675,925.009 430.631,920.151 "/>
    <text font-size="12.7998" style="fill: #000000;text-anchor:middle;font-family:sans-serif;font-style:normal;font-weight:normal" x="278.076" y="936.5">&lt;&lt;create&gt;&gt;</text>
  </g>
  <g>
    <line style="fill: none; fill-opacity:0; stroke-width: 2; stroke: #000000" x1="430.676" y1="945.15" x2="108.475" y2="948"/>
    <polygon style="fill: #000000" points="430.72,950.15 446.675,945.009 430.631,940.151 "/>
    <polygon style="fill: none; fill-opacity:0; stroke-width: 2; stroke: #000000" points="430.72,950.15 446.675,945.009 430.631,940.151 "/>
    <text font-size="12.7998" style="fill: #000000;text-anchor:middle;font-family:sans-serif;font-style:normal;font-weight:normal" x="278.074" y="956.5">convert(diagram_object,diagram_xml)</text>
  </g>
  <g>
    <rect style="fill: #ffffff" x="1195" y="815" width="96.35" height="36"/>
    <rect style="fill: none; fill-opacity:0; stroke-width: 1.9812; stroke: #000000" x="1195" y="815" width="96.35" height="36"/>
    <text font-size="12.8" style="fill: #000000;text-anchor:middle;font-family:sans-serif;font-style:normal;font-weight:normal" x="1243.17" y="836.9">
      <tspan x="1243.17" y="836.9">DiagramFile</tspan>
    </text>
    <line style="fill: none; fill-opacity:0; stroke-width: 0.9906; stroke: #000000" x1="1205" y1="839.9" x2="1281.35" y2="839.9"/>
  </g>
  <g>
    <line style="fill: none; fill-opacity:0; stroke-width: 1; stroke-dasharray: 8; stroke: #000000" x1="1243.17" y1="851" x2="1243.17" y2="1340"/>
    <line style="fill: none; fill-opacity:0; stroke-width: 1; stroke-dasharray: 8; stroke: #000000" x1="1243.17" y1="1420" x2="1243.17" y2="1440"/>
    <rect style="fill: #ffffff" x="1236.17" y="1340" width="14" height="80"/>
    <rect style="fill: none; fill-opacity:0; stroke-width: 2; stroke: #000000" x="1236.17" y="1340" width="14" height="80"/>
  </g>
  <g>
    <line style="fill: none; fill-opacity:0; stroke-width: 2; stroke: #000000" x1="1219.18" y1="1339.82" x2="108.475" y2="1328"/>
    <polygon style="fill: #000000" points="1219.12,1344.82 1235.18,1339.99 1219.23,1334.82 "/>
    <polygon style="fill: none; fill-opacity:0; stroke-width: 2; stroke: #000000" points="1219.12,1344.82 1235.18,1339.99 1219.23,1334.82 "/>
    <text font-size="12.7998" style="fill: #000000;text-anchor:middle;font-family:sans-serif;font-style:normal;font-weight:normal" x="672.327" y="1344">&lt;&lt;create&gt;&gt;</text>
  </g>
  <g>
    <line style="fill: none; fill-opacity:0; stroke-width: 2; stroke: #000000" x1="1219.18" y1="1359.82" x2="108.475" y2="1348"/>
    <polygon style="fill: #000000" points="1219.12,1364.82 1235.18,1359.99 1219.23,1354.82 "/>
    <polygon style="fill: none; fill-opacity:0; stroke-width: 2; stroke: #000000" points="1219.12,1364.82 1235.18,1359.99 1219.23,1354.82 "/>
    <text font-size="12.7998" style="fill: #000000;text-anchor:middle;font-family:sans-serif;font-style:normal;font-weight:normal" x="672.324" y="1364">updated_diagram_xml(diagram_xml)</text>
  </g>
  <g>
    <line style="fill: none; fill-opacity:0; stroke-width: 2; stroke: #000000" x1="1219.18" y1="1379.82" x2="108.475" y2="1368"/>
    <polygon style="fill: #000000" points="1219.12,1384.82 1235.18,1379.99 1219.23,1374.82 "/>
    <polygon style="fill: none; fill-opacity:0; stroke-width: 2; stroke: #000000" points="1219.12,1384.82 1235.18,1379.99 1219.23,1374.82 "/>
    <text font-size="12.7998" style="fill: #000000;text-anchor:middle;font-family:sans-serif;font-style:normal;font-weight:normal" x="672.325" y="1384">save</text>
  </g>
  <g>
    <line style="fill: none; fill-opacity:0; stroke-width: 2; stroke: #000000" x1="430.696" y1="1224.15" x2="108.475" y2="1208"/>
    <polygon style="fill: #000000" points="430.446,1229.14 446.676,1224.95 430.947,1219.16 "/>
    <polygon style="fill: none; fill-opacity:0; stroke-width: 2; stroke: #000000" points="430.446,1229.14 446.676,1224.95 430.947,1219.16 "/>
    <text font-size="12.7998" style="fill: #000000;text-anchor:middle;font-family:sans-serif;font-style:normal;font-weight:normal" x="278.075" y="1226.5">diagram_xml</text>
  </g>
  <g>
    <line style="fill: none; fill-opacity:0; stroke-width: 2; stroke-dasharray: 8; stroke: #000000" x1="125.454" y1="1228.85" x2="447.675" y2="1245"/>
    <polygon style="fill: #000000" points="125.704,1223.86 109.474,1228.05 125.203,1233.84 "/>
    <polygon style="fill: none; fill-opacity:0; stroke-width: 2; stroke: #000000" points="125.704,1223.86 109.474,1228.05 125.203,1233.84 "/>
    <text font-size="12.7998" style="fill: #000000;text-anchor:middle;font-family:sans-serif;font-style:normal;font-weight:normal" x="278.075" y="1246.5">diagram_xml</text>
  </g>
  <g>
    <rect style="fill: #ffffff" x="740" y="815" width="146.9" height="36"/>
    <rect style="fill: none; fill-opacity:0; stroke-width: 1.9812; stroke: #000000" x="740" y="815" width="146.9" height="36"/>
    <text font-size="12.8" style="fill: #000000;text-anchor:middle;font-family:sans-serif;font-style:normal;font-weight:normal" x="813.45" y="836.9">
      <tspan x="813.45" y="836.9">Table Object to XML</tspan>
    </text>
    <line style="fill: none; fill-opacity:0; stroke-width: 0.9906; stroke: #000000" x1="750" y1="839.9" x2="876.9" y2="839.9"/>
  </g>
  <g>
    <rect style="fill: #ffffff" x="550" y="815" width="178.95" height="36"/>
    <rect style="fill: none; fill-opacity:0; stroke-width: 1.9812; stroke: #000000" x="550" y="815" width="178.95" height="36"/>
    <text font-size="12.8" style="fill: #000000;text-anchor:middle;font-family:sans-serif;font-style:normal;font-weight:normal" x="639.475" y="836.9">
      <tspan x="639.475" y="836.9">Reference Object To XML</tspan>
    </text>
    <line style="fill: none; fill-opacity:0; stroke-width: 0.9906; stroke: #000000" x1="560" y1="839.9" x2="718.95" y2="839.9"/>
  </g>
  <g>
    <rect style="fill: #ffffff" x="900" y="815" width="162.75" height="36"/>
    <rect style="fill: none; fill-opacity:0; stroke-width: 1.9812; stroke: #000000" x="900" y="815" width="162.75" height="36"/>
    <text font-size="12.8" style="fill: #000000;text-anchor:middle;font-family:sans-serif;font-style:normal;font-weight:normal" x="981.375" y="836.9">
      <tspan x="981.375" y="836.9">Column Object to XML</tspan>
    </text>
    <line style="fill: none; fill-opacity:0; stroke-width: 0.9906; stroke: #000000" x1="910" y1="839.9" x2="1052.75" y2="839.9"/>
  </g>
  <g>
    <line style="fill: none; fill-opacity:0; stroke-width: 1; stroke-dasharray: 8; stroke: #000000" x1="639.475" y1="851" x2="639.475" y2="945"/>
    <line style="fill: none; fill-opacity:0; stroke-width: 1; stroke-dasharray: 8; stroke: #000000" x1="639.475" y1="1025" x2="639.475" y2="1160"/>
    <rect style="fill: #ffffff" x="632.475" y="945" width="14" height="80"/>
    <rect style="fill: none; fill-opacity:0; stroke-width: 2; stroke: #000000" x="632.475" y="945" width="14" height="80"/>
  </g>
  <g>
    <line style="fill: none; fill-opacity:0; stroke-width: 2; stroke: #000000" x1="615.475" y1="965" x2="461.675" y2="965"/>
    <polygon style="fill: #000000" points="615.475,970 631.475,965 615.475,960 "/>
    <polygon style="fill: none; fill-opacity:0; stroke-width: 2; stroke: #000000" points="615.475,970 631.475,965 615.475,960 "/>
    <text font-size="12.7998" style="fill: #000000;text-anchor:middle;font-family:sans-serif;font-style:normal;font-weight:normal" x="547.075" y="975">new(reference_object)</text>
  </g>
  <g>
    <line style="fill: none; fill-opacity:0; stroke-width: 2; stroke: #000000" x1="615.475" y1="985" x2="461.675" y2="985"/>
    <polygon style="fill: #000000" points="615.475,990 631.475,985 615.475,980 "/>
    <polygon style="fill: none; fill-opacity:0; stroke-width: 2; stroke: #000000" points="615.475,990 631.475,985 615.475,980 "/>
    <text font-size="12.7998" style="fill: #000000;text-anchor:middle;font-family:sans-serif;font-style:normal;font-weight:normal" x="547.075" y="995">reference_xml</text>
  </g>
  <g>
    <line style="fill: none; fill-opacity:0; stroke-width: 2; stroke-dasharray: 8; stroke: #000000" x1="478.675" y1="1005" x2="632.475" y2="1005"/>
    <polygon style="fill: #000000" points="478.675,1000 462.675,1005 478.675,1010 "/>
    <polygon style="fill: none; fill-opacity:0; stroke-width: 2; stroke: #000000" points="478.675,1000 462.675,1005 478.675,1010 "/>
    <text font-size="12.7998" style="fill: #000000;text-anchor:middle;font-family:sans-serif;font-style:normal;font-weight:normal" x="547.075" y="1015">reference_xml</text>
  </g>
  <g>
    <line style="fill: none; fill-opacity:0; stroke-width: 1; stroke-dasharray: 8; stroke: #000000" x1="813.45" y1="851" x2="813.45" y2="1025"/>
    <line style="fill: none; fill-opacity:0; stroke-width: 1; stroke-dasharray: 8; stroke: #000000" x1="813.45" y1="1105" x2="813.45" y2="1300"/>
    <rect style="fill: #ffffff" x="806.45" y="1025" width="14" height="80"/>
    <rect style="fill: none; fill-opacity:0; stroke-width: 2; stroke: #000000" x="806.45" y="1025" width="14" height="80"/>
  </g>
  <g>
    <line style="fill: none; fill-opacity:0; stroke-width: 2; stroke: #000000" x1="789.45" y1="1045" x2="461.675" y2="1045"/>
    <polygon style="fill: #000000" points="789.45,1050 805.45,1045 789.45,1040 "/>
    <polygon style="fill: none; fill-opacity:0; stroke-width: 2; stroke: #000000" points="789.45,1050 805.45,1045 789.45,1040 "/>
    <text font-size="12.7998" style="fill: #000000;text-anchor:middle;font-family:sans-serif;font-style:normal;font-weight:normal" x="634.062" y="1055">new(reference_object)</text>
  </g>
  <g>
    <line style="fill: none; fill-opacity:0; stroke-width: 2; stroke: #000000" x1="789.45" y1="1065" x2="461.675" y2="1065"/>
    <polygon style="fill: #000000" points="789.45,1070 805.45,1065 789.45,1060 "/>
    <polygon style="fill: none; fill-opacity:0; stroke-width: 2; stroke: #000000" points="789.45,1070 805.45,1065 789.45,1060 "/>
    <text font-size="12.7998" style="fill: #000000;text-anchor:middle;font-family:sans-serif;font-style:normal;font-weight:normal" x="634.062" y="1075">table_xml</text>
  </g>
  <g>
    <line style="fill: none; fill-opacity:0; stroke-width: 2; stroke-dasharray: 8; stroke: #000000" x1="478.675" y1="1085" x2="806.45" y2="1085"/>
    <polygon style="fill: #000000" points="478.675,1080 462.675,1085 478.675,1090 "/>
    <polygon style="fill: none; fill-opacity:0; stroke-width: 2; stroke: #000000" points="478.675,1080 462.675,1085 478.675,1090 "/>
    <text font-size="12.7998" style="fill: #000000;text-anchor:middle;font-family:sans-serif;font-style:normal;font-weight:normal" x="634.062" y="1095">table_xml</text>
  </g>
  <g>
    <line style="fill: none; fill-opacity:0; stroke-width: 1; stroke-dasharray: 8; stroke: #000000" x1="981.375" y1="851" x2="981.375" y2="1105"/>
    <line style="fill: none; fill-opacity:0; stroke-width: 1; stroke-dasharray: 8; stroke: #000000" x1="981.375" y1="1185" x2="981.375" y2="1304"/>
    <rect style="fill: #ffffff" x="974.375" y="1105" width="14" height="80"/>
    <rect style="fill: none; fill-opacity:0; stroke-width: 2; stroke: #000000" x="974.375" y="1105" width="14" height="80"/>
  </g>
  <g>
    <line style="fill: none; fill-opacity:0; stroke-width: 2; stroke: #000000" x1="957.375" y1="1125" x2="461.675" y2="1125"/>
    <polygon style="fill: #000000" points="957.375,1130 973.375,1125 957.375,1120 "/>
    <polygon style="fill: none; fill-opacity:0; stroke-width: 2; stroke: #000000" points="957.375,1130 973.375,1125 957.375,1120 "/>
    <text font-size="12.7998" style="fill: #000000;text-anchor:middle;font-family:sans-serif;font-style:normal;font-weight:normal" x="718.025" y="1135">new(reference_object)</text>
  </g>
  <g>
    <line style="fill: none; fill-opacity:0; stroke-width: 2; stroke: #000000" x1="957.375" y1="1145" x2="461.675" y2="1145"/>
    <polygon style="fill: #000000" points="957.375,1150 973.375,1145 957.375,1140 "/>
    <polygon style="fill: none; fill-opacity:0; stroke-width: 2; stroke: #000000" points="957.375,1150 973.375,1145 957.375,1140 "/>
    <text font-size="12.7998" style="fill: #000000;text-anchor:middle;font-family:sans-serif;font-style:normal;font-weight:normal" x="718.025" y="1155">column_xml</text>
  </g>
  <g>
    <line style="fill: none; fill-opacity:0; stroke-width: 2; stroke-dasharray: 8; stroke: #000000" x1="478.675" y1="1165" x2="974.375" y2="1165"/>
    <polygon style="fill: #000000" points="478.675,1160 462.675,1165 478.675,1170 "/>
    <polygon style="fill: none; fill-opacity:0; stroke-width: 2; stroke: #000000" points="478.675,1160 462.675,1165 478.675,1170 "/>
    <text font-size="12.7998" style="fill: #000000;text-anchor:middle;font-family:sans-serif;font-style:normal;font-weight:normal" x="718.025" y="1175">column_xml</text>
  </g>
</svg>
