<?xml version="1.0" encoding="UTF-8" standalone="no"?>
<!DOCTYPE svg PUBLIC "-//W3C//DTD SVG 1.0//EN" "http://www.w3.org/TR/2001/PR-SVG-20010719/DTD/svg10.dtd">
<svg width="54cm" height="35cm" viewBox="59 8 1072 698" xmlns="http://www.w3.org/2000/svg" xmlns:xlink="http://www.w3.org/1999/xlink">
  <g>
    <rect style="fill: #ffffff" x="260" y="60" width="100.4" height="36"/>
    <rect style="fill: none; fill-opacity:0; stroke-width: 2; stroke: #000000" x="260" y="60" width="100.4" height="36"/>
    <text font-size="12.8" style="fill: #000000;text-anchor:middle;font-family:sans-serif;font-style:normal;font-weight:normal" x="310.2" y="81.9">
      <tspan x="310.2" y="81.9">Diagram File</tspan>
    </text>
    <line style="fill: none; fill-opacity:0; stroke-width: 1; stroke: #000000" x1="270" y1="84.9" x2="350.4" y2="84.9"/>
  </g>
  <g>
    <rect style="fill: #ffffff" x="60" y="60" width="82.95" height="36"/>
    <rect style="fill: none; fill-opacity:0; stroke-width: 2; stroke: #000000" x="60" y="60" width="82.95" height="36"/>
    <text font-size="12.8" style="fill: #000000;text-anchor:middle;font-family:sans-serif;font-style:normal;font-weight:normal" x="101.475" y="81.9">
      <tspan x="101.475" y="81.9">Controller</tspan>
    </text>
    <line style="fill: none; fill-opacity:0; stroke-width: 1; stroke: #000000" x1="70" y1="84.9" x2="132.95" y2="84.9"/>
  </g>
  <g>
    <line style="fill: none; fill-opacity:0; stroke-width: 1; stroke-dasharray: 8; stroke: #000000" x1="310.2" y1="96" x2="310.2" y2="170"/>
    <line style="fill: none; fill-opacity:0; stroke-width: 1; stroke-dasharray: 8; stroke: #000000" x1="310.2" y1="210" x2="310.2" y2="332"/>
    <rect style="fill: #ffffff" x="303.2" y="170" width="14" height="40"/>
    <rect style="fill: none; fill-opacity:0; stroke-width: 2; stroke: #000000" x="303.2" y="170" width="14" height="40"/>
  </g>
  <g>
    <line style="fill: none; fill-opacity:0; stroke-width: 1; stroke-dasharray: 8; stroke: #000000" x1="101.475" y1="78" x2="101.475" y2="168"/>
    <line style="fill: none; fill-opacity:0; stroke-width: 1; stroke-dasharray: 8; stroke: #000000" x1="101.475" y1="608" x2="101.475" y2="693"/>
    <rect style="fill: #ffffff" x="94.475" y="168" width="14" height="440"/>
    <rect style="fill: none; fill-opacity:0; stroke-width: 2; stroke: #000000" x="94.475" y="168" width="14" height="440"/>
  </g>
  <g>
    <line style="fill: none; fill-opacity:0; stroke-width: 2; stroke: #000000" x1="286.201" y1="169.825" x2="108.475" y2="168"/>
    <polygon style="fill: #000000" points="286.15,174.825 302.2,169.99 286.252,164.826 "/>
    <polygon style="fill: none; fill-opacity:0; stroke-width: 2; stroke: #000000" points="286.15,174.825 302.2,169.99 286.252,164.826 "/>
    <text font-size="12.7998" style="fill: #000000;text-anchor:middle;font-family:sans-serif;font-style:normal;font-weight:normal" x="205.837" y="179">&lt;&lt;create&gt;&gt;</text>
  </g>
  <g>
    <rect style="fill: #ffffff" x="420" y="60" width="119.05" height="36"/>
    <rect style="fill: none; fill-opacity:0; stroke-width: 2; stroke: #000000" x="420" y="60" width="119.05" height="36"/>
    <text font-size="12.8" style="fill: #000000;text-anchor:middle;font-family:sans-serif;font-style:normal;font-weight:normal" x="479.525" y="81.9">
      <tspan x="479.525" y="81.9">Diagram Parser</tspan>
    </text>
    <line style="fill: none; fill-opacity:0; stroke-width: 1; stroke: #000000" x1="430" y1="84.9" x2="529.05" y2="84.9"/>
  </g>
  <g>
    <line style="fill: none; fill-opacity:0; stroke-width: 1; stroke-dasharray: 8; stroke: #000000" x1="479.525" y1="96" x2="479.525" y2="230"/>
    <line style="fill: none; fill-opacity:0; stroke-width: 1; stroke-dasharray: 8; stroke: #000000" x1="479.525" y1="290" x2="479.525" y2="705"/>
    <rect style="fill: #ffffff" x="472.525" y="230" width="14" height="60"/>
    <rect style="fill: none; fill-opacity:0; stroke-width: 2; stroke: #000000" x="472.525" y="230" width="14" height="60"/>
  </g>
  <g>
    <line style="fill: none; fill-opacity:0; stroke-width: 2; stroke: #000000" x1="455.546" y1="230.84" x2="108.475" y2="248"/>
    <polygon style="fill: #000000" points="455.793,235.833 471.526,230.049 455.299,225.846 "/>
    <polygon style="fill: none; fill-opacity:0; stroke-width: 2; stroke: #000000" points="455.793,235.833 471.526,230.049 455.299,225.846 "/>
    <text font-size="12.7998" style="fill: #000000;text-anchor:middle;font-family:sans-serif;font-style:normal;font-weight:normal" x="290.5" y="249">&lt;&lt;create&gt;&gt;</text>
  </g>
  <g>
    <rect style="fill: #ffffff" x="450" y="8.1" width="165.65" height="46.9"/>
    <text font-size="12.8" style="fill: #000000;text-anchor:start;font-family:sans-serif;font-style:normal;font-weight:normal" x="450" y="20">
      <tspan x="450" y="20">This should probably</tspan>
      <tspan x="450" y="36">be a factory creating</tspan>
      <tspan x="450" y="52">objects based on the xml.</tspan>
    </text>
  </g>
  <g>
    <rect style="fill: #ffffff" x="1040" y="60" width="84.55" height="36"/>
    <rect style="fill: none; fill-opacity:0; stroke-width: 2; stroke: #000000" x="1040" y="60" width="84.55" height="36"/>
    <text font-size="12.8" style="fill: #000000;text-anchor:middle;font-family:sans-serif;font-style:normal;font-weight:normal" x="1082.28" y="81.9">
      <tspan x="1082.28" y="81.9">Reference</tspan>
    </text>
    <line style="fill: none; fill-opacity:0; stroke-width: 1; stroke: #000000" x1="1050" y1="84.9" x2="1114.55" y2="84.9"/>
  </g>
  <g>
    <rect style="fill: #ffffff" x="870" y="60" width="53.15" height="36"/>
    <rect style="fill: none; fill-opacity:0; stroke-width: 2; stroke: #000000" x="870" y="60" width="53.15" height="36"/>
    <text font-size="12.8" style="fill: #000000;text-anchor:middle;font-family:sans-serif;font-style:normal;font-weight:normal" x="896.575" y="81.9">
      <tspan x="896.575" y="81.9">Table</tspan>
    </text>
    <line style="fill: none; fill-opacity:0; stroke-width: 1; stroke: #000000" x1="880" y1="84.9" x2="913.15" y2="84.9"/>
  </g>
  <g>
    <line style="fill: none; fill-opacity:0; stroke-width: 1; stroke-dasharray: 8; stroke: #000000" x1="1082.28" y1="96" x2="1082.28" y2="545"/>
    <line style="fill: none; fill-opacity:0; stroke-width: 1; stroke-dasharray: 8; stroke: #000000" x1="1082.28" y1="585" x2="1082.28" y2="700"/>
    <rect style="fill: #ffffff" x="1075.28" y="545" width="14" height="40"/>
    <rect style="fill: none; fill-opacity:0; stroke-width: 2; stroke: #000000" x="1075.28" y="545" width="14" height="40"/>
  </g>
  <g>
    <line style="fill: none; fill-opacity:0; stroke-width: 1; stroke-dasharray: 8; stroke: #000000" x1="896.575" y1="96" x2="896.575" y2="390"/>
    <line style="fill: none; fill-opacity:0; stroke-width: 1; stroke-dasharray: 8; stroke: #000000" x1="896.575" y1="430" x2="896.575" y2="705"/>
    <rect style="fill: #ffffff" x="889.575" y="390" width="14" height="40"/>
    <rect style="fill: none; fill-opacity:0; stroke-width: 2; stroke: #000000" x="889.575" y="390" width="14" height="40"/>
  </g>
  <g>
    <line style="fill: none; fill-opacity:0; stroke-width: 2; stroke: #000000" x1="872.575" y1="389.956" x2="108.475" y2="388"/>
    <polygon style="fill: #000000" points="872.562,394.956 888.575,389.997 872.588,384.956 "/>
    <polygon style="fill: none; fill-opacity:0; stroke-width: 2; stroke: #000000" points="872.562,394.956 888.575,389.997 872.588,384.956 "/>
    <text font-size="12.7998" style="fill: #000000;text-anchor:middle;font-family:sans-serif;font-style:normal;font-weight:normal" x="499.025" y="399">&lt;&lt;create&gt;&gt;</text>
  </g>
  <g>
    <line style="fill: none; fill-opacity:0; stroke-width: 2; stroke: #000000" x1="1058.28" y1="545.053" x2="108.475" y2="548"/>
    <polygon style="fill: #000000" points="1058.29,550.053 1074.28,545.003 1058.26,540.053 "/>
    <polygon style="fill: none; fill-opacity:0; stroke-width: 2; stroke: #000000" points="1058.29,550.053 1074.28,545.003 1058.26,540.053 "/>
    <text font-size="12.7998" style="fill: #000000;text-anchor:middle;font-family:sans-serif;font-style:normal;font-weight:normal" x="591.875" y="556.5">&lt;&lt;create&gt;&gt;</text>
  </g>
  <rect style="fill: none; fill-opacity:0; stroke-width: 1.9812; stroke: #000000" x="115" y="380" width="1015" height="230"/>
  <g>
    <rect style="fill: #ffffff" x="120" y="363.1" width="30.8" height="14.9"/>
    <text font-size="12.8" style="fill: #000000;text-anchor:start;font-family:sans-serif;font-style:normal;font-weight:normal" x="120" y="375">
      <tspan x="120" y="375">Loop</tspan>
    </text>
  </g>
  <g>
    <rect style="fill: #ffffff" x="670" y="60" width="81.1" height="36"/>
    <rect style="fill: none; fill-opacity:0; stroke-width: 2; stroke: #000000" x="670" y="60" width="81.1" height="36"/>
    <text font-size="12.8" style="fill: #000000;text-anchor:middle;font-family:sans-serif;font-style:normal;font-weight:normal" x="710.55" y="81.9">
      <tspan x="710.55" y="81.9">Database</tspan>
    </text>
    <line style="fill: none; fill-opacity:0; stroke-width: 1; stroke: #000000" x1="680" y1="84.9" x2="741.1" y2="84.9"/>
  </g>
  <g>
    <line style="fill: none; fill-opacity:0; stroke-width: 1; stroke-dasharray: 8; stroke: #000000" x1="710.55" y1="96" x2="710.55" y2="330"/>
    <line style="fill: none; fill-opacity:0; stroke-width: 1; stroke-dasharray: 8; stroke: #000000" x1="710.55" y1="370" x2="710.55" y2="700"/>
    <rect style="fill: #ffffff" x="703.55" y="330" width="14" height="40"/>
    <rect style="fill: none; fill-opacity:0; stroke-width: 2; stroke: #000000" x="703.55" y="330" width="14" height="40"/>
  </g>
  <g>
    <line style="fill: none; fill-opacity:0; stroke-width: 2; stroke: #000000" x1="686.55" y1="329.943" x2="108.475" y2="328"/>
    <polygon style="fill: #000000" points="686.533,334.943 702.55,329.997 686.567,324.943 "/>
    <polygon style="fill: none; fill-opacity:0; stroke-width: 2; stroke: #000000" points="686.533,334.943 702.55,329.997 686.567,324.943 "/>
    <text font-size="12.7998" style="fill: #000000;text-anchor:middle;font-family:sans-serif;font-style:normal;font-weight:normal" x="406.012" y="339">&lt;&lt;create&gt;&gt;</text>
  </g>
  <g>
    <rect style="fill: #ffffff" x="955" y="60" width="69" height="36"/>
    <rect style="fill: none; fill-opacity:0; stroke-width: 2; stroke: #000000" x="955" y="60" width="69" height="36"/>
    <text font-size="12.7998" style="fill: #000000;text-anchor:middle;font-family:sans-serif;font-style:normal;font-weight:normal" x="989.5" y="81.9">
      <tspan x="989.5" y="81.9">Column</tspan>
    </text>
    <line style="fill: none; fill-opacity:0; stroke-width: 1; stroke: #000000" x1="965" y1="84.9" x2="1014" y2="84.9"/>
  </g>
  <g>
    <line style="fill: none; fill-opacity:0; stroke-width: 1; stroke-dasharray: 8; stroke: #000000" x1="989.5" y1="96" x2="989.5" y2="470"/>
    <line style="fill: none; fill-opacity:0; stroke-width: 1; stroke-dasharray: 8; stroke: #000000" x1="989.5" y1="510" x2="989.5" y2="705"/>
    <rect style="fill: #ffffff" x="982.5" y="470" width="14" height="40"/>
    <rect style="fill: none; fill-opacity:0; stroke-width: 2; stroke: #000000" x="982.5" y="470" width="14" height="40"/>
  </g>
  <g>
    <line style="fill: none; fill-opacity:0; stroke-width: 2; stroke: #000000" x1="965.504" y1="470.35" x2="108.475" y2="488"/>
    <polygon style="fill: #000000" points="965.607,475.349 981.5,470.021 965.401,465.351 "/>
    <polygon style="fill: none; fill-opacity:0; stroke-width: 2; stroke: #000000" points="965.607,475.349 981.5,470.021 965.401,465.351 "/>
    <text font-size="12.7998" style="fill: #000000;text-anchor:middle;font-family:sans-serif;font-style:normal;font-weight:normal" x="545.487" y="489">&lt;&lt;create&gt;&gt;</text>
  </g>
</svg>
